<?xml version="1.0" encoding="utf-8" standalone="no"?>
<!DOCTYPE svg PUBLIC "-//W3C//DTD SVG 1.1//EN"
  "http://www.w3.org/Graphics/SVG/1.1/DTD/svg11.dtd">
<svg xmlns:xlink="http://www.w3.org/1999/xlink" width="262.554368pt" height="245.518125pt" viewBox="0 0 262.554368 245.518125" xmlns="http://www.w3.org/2000/svg" version="1.1">
 <metadata>
  <rdf:RDF xmlns:dc="http://purl.org/dc/elements/1.1/" xmlns:cc="http://creativecommons.org/ns#" xmlns:rdf="http://www.w3.org/1999/02/22-rdf-syntax-ns#">
   <cc:Work>
    <dc:type rdf:resource="http://purl.org/dc/dcmitype/StillImage"/>
    <dc:date>2023-07-27T16:27:59.134178</dc:date>
    <dc:format>image/svg+xml</dc:format>
    <dc:creator>
     <cc:Agent>
      <dc:title>Matplotlib v3.7.1, https://matplotlib.org/</dc:title>
     </cc:Agent>
    </dc:creator>
   </cc:Work>
  </rdf:RDF>
 </metadata>
 <defs>
  <style type="text/css">*{stroke-linejoin: round; stroke-linecap: butt}</style>
 </defs>
 <g id="figure_1">
  <g id="patch_1">
   <path d="M 0 245.518125 
L 262.554368 245.518125 
L 262.554368 0 
L 0 0 
z
" style="fill: #ffffff"/>
  </g>
  <g id="axes_1">
   <g id="patch_2">
    <path d="M 20.878125 224.64 
L 255.354368 224.64 
L 255.354368 7.2 
L 20.878125 7.2 
z
" style="fill: #ffffff"/>
   </g>
   <g id="line2d_1">
    <path d="M 65.452699 56.982613 
L 89.823855 103.046933 
" clip-path="url(#p1570c7b0a5)" style="fill: none; stroke-dasharray: 1.85,0.8; stroke-dashoffset: 0; stroke: #808080; stroke-opacity: 0.35; stroke-width: 0.5"/>
   </g>
   <g id="line2d_2">
    <path d="M 65.452699 56.982613 
L 34.285953 17.083636 
" clip-path="url(#p1570c7b0a5)" style="fill: none; stroke-dasharray: 1.85,0.8; stroke-dashoffset: 0; stroke: #808080; stroke-opacity: 0.35; stroke-width: 0.5"/>
   </g>
   <g id="line2d_3">
    <path d="M 89.823855 103.046933 
L 34.285953 17.083636 
" clip-path="url(#p1570c7b0a5)" style="fill: none; stroke-dasharray: 1.85,0.8; stroke-dashoffset: 0; stroke: #808080; stroke-opacity: 0.35; stroke-width: 0.5"/>
   </g>
   <g id="line2d_4">
    <path d="M 34.285953 17.083636 
L 232.140498 214.756364 
" clip-path="url(#p1570c7b0a5)" style="fill: none; stroke-dasharray: 1.85,0.8; stroke-dashoffset: 0; stroke: #808080; stroke-opacity: 0.35; stroke-width: 0.5"/>
   </g>
   <g id="line2d_5">
    <path d="M 232.140498 214.756364 
L 244.696357 191.582927 
" clip-path="url(#p1570c7b0a5)" style="fill: none; stroke-dasharray: 1.85,0.8; stroke-dashoffset: 0; stroke: #808080; stroke-opacity: 0.35; stroke-width: 0.5"/>
   </g>
   <g id="line2d_6">
    <path d="M 65.452699 56.982613 
L 94.404009 86.894237 
" clip-path="url(#p1570c7b0a5)" style="fill: none; stroke-dasharray: 1.85,0.8; stroke-dashoffset: 0; stroke: #808080; stroke-opacity: 0.35; stroke-width: 0.5"/>
   </g>
   <g id="line2d_7">
    <path d="M 89.823855 103.046933 
L 94.404009 86.894237 
" clip-path="url(#p1570c7b0a5)" style="fill: none; stroke-dasharray: 1.85,0.8; stroke-dashoffset: 0; stroke: #808080; stroke-opacity: 0.35; stroke-width: 0.5"/>
   </g>
   <g id="line2d_8">
    <path d="M 244.696357 191.582927 
L 94.404009 86.894237 
" clip-path="url(#p1570c7b0a5)" style="fill: none; stroke-dasharray: 1.85,0.8; stroke-dashoffset: 0; stroke: #808080; stroke-opacity: 0.35; stroke-width: 0.5"/>
   </g>
   <g id="line2d_9">
    <path d="M 94.404009 86.894237 
L 241.855337 31.82247 
" clip-path="url(#p1570c7b0a5)" style="fill: none; stroke-dasharray: 1.85,0.8; stroke-dashoffset: 0; stroke: #808080; stroke-opacity: 0.35; stroke-width: 0.5"/>
   </g>
   <g id="line2d_10">
    <path d="M 65.452699 56.982613 
L 31.536136 105.840878 
" clip-path="url(#p1570c7b0a5)" style="fill: none; stroke-dasharray: 1.85,0.8; stroke-dashoffset: 0; stroke: #808080; stroke-opacity: 0.35; stroke-width: 0.5"/>
   </g>
   <g id="line2d_11">
    <path d="M 89.823855 103.046933 
L 31.536136 105.840878 
" clip-path="url(#p1570c7b0a5)" style="fill: none; stroke-dasharray: 1.85,0.8; stroke-dashoffset: 0; stroke: #808080; stroke-opacity: 0.35; stroke-width: 0.5"/>
   </g>
   <g id="line2d_12">
    <path d="M 34.285953 17.083636 
L 31.536136 105.840878 
" clip-path="url(#p1570c7b0a5)" style="fill: none; stroke-dasharray: 1.85,0.8; stroke-dashoffset: 0; stroke: #808080; stroke-opacity: 0.35; stroke-width: 0.5"/>
   </g>
   <g id="line2d_13">
    <path d="M 241.855337 31.82247 
L 31.536136 105.840878 
" clip-path="url(#p1570c7b0a5)" style="fill: none; stroke-dasharray: 1.85,0.8; stroke-dashoffset: 0; stroke: #808080; stroke-opacity: 0.35; stroke-width: 0.5"/>
   </g>
   <g id="line2d_14">
    <path d="M 89.823855 103.046933 
L 154.288938 113.845044 
" clip-path="url(#p1570c7b0a5)" style="fill: none; stroke-dasharray: 1.85,0.8; stroke-dashoffset: 0; stroke: #808080; stroke-opacity: 0.35; stroke-width: 0.5"/>
   </g>
   <g id="line2d_15">
    <path d="M 94.404009 86.894237 
L 154.288938 113.845044 
" clip-path="url(#p1570c7b0a5)" style="fill: none; stroke-dasharray: 1.85,0.8; stroke-dashoffset: 0; stroke: #808080; stroke-opacity: 0.35; stroke-width: 0.5"/>
   </g>
   <g id="line2d_16">
    <path d="M 241.855337 31.82247 
L 154.288938 113.845044 
" clip-path="url(#p1570c7b0a5)" style="fill: none; stroke-dasharray: 1.85,0.8; stroke-dashoffset: 0; stroke: #808080; stroke-opacity: 0.35; stroke-width: 0.5"/>
   </g>
   <g id="line2d_17">
    <path d="M 31.536136 105.840878 
L 154.288938 113.845044 
" clip-path="url(#p1570c7b0a5)" style="fill: none; stroke-dasharray: 1.85,0.8; stroke-dashoffset: 0; stroke: #808080; stroke-opacity: 0.35; stroke-width: 0.5"/>
   </g>
   <g id="line2d_18">
    <path d="M 65.452699 56.982613 
L 202.538293 186.334261 
" clip-path="url(#p1570c7b0a5)" style="fill: none; stroke-dasharray: 1.85,0.8; stroke-dashoffset: 0; stroke: #808080; stroke-opacity: 0.35; stroke-width: 0.5"/>
   </g>
   <g id="line2d_19">
    <path d="M 232.140498 214.756364 
L 202.538293 186.334261 
" clip-path="url(#p1570c7b0a5)" style="fill: none; stroke-dasharray: 1.85,0.8; stroke-dashoffset: 0; stroke: #808080; stroke-opacity: 0.35; stroke-width: 0.5"/>
   </g>
   <g id="line2d_20">
    <path d="M 244.696357 191.582927 
L 202.538293 186.334261 
" clip-path="url(#p1570c7b0a5)" style="fill: none; stroke-dasharray: 1.85,0.8; stroke-dashoffset: 0; stroke: #808080; stroke-opacity: 0.35; stroke-width: 0.5"/>
   </g>
   <g id="line2d_21">
    <path d="M 154.288938 113.845044 
L 202.538293 186.334261 
" clip-path="url(#p1570c7b0a5)" style="fill: none; stroke-dasharray: 1.85,0.8; stroke-dashoffset: 0; stroke: #808080; stroke-opacity: 0.35; stroke-width: 0.5"/>
   </g>
   <g id="line2d_22">
    <path d="M 94.404009 86.894237 
L 94.362865 86.99337 
L 94.319367 87.091914 
L 94.273746 87.189635 
L 94.225943 87.286538 
L 94.175973 87.382571 
L 94.123849 87.477683 
L 94.069585 87.571824 
L 94.013195 87.664947 
L 93.954695 87.757005 
L 93.8941 87.847953 
L 93.831427 87.937748 
L 93.766694 88.026347 
L 93.69992 88.113708 
L 93.631127 88.199792 
L 93.560335 88.284561 
L 93.48757 88.367977 
L 93.412857 88.450006 
L 93.336222 88.530612 
L 93.251972 88.612226 
L 93.170708 88.690131 
L 93.087741 88.766499 
L 93.002951 88.841324 
L 92.916368 88.914578 
L 92.82803 88.986237 
L 92.73798 89.056277 
L 92.64626 89.124679 
L 92.552915 89.191423 
L 92.457993 89.256492 
L 92.361543 89.319873 
L 92.263617 89.381552 
L 92.164269 89.441519 
L 92.063555 89.499765 
L 91.961535 89.556284 
L 91.848079 89.613597 
L 91.741582 89.666777 
L 91.634915 89.718151 
L 91.527297 89.767804 
L 91.418684 89.815727 
L 91.309135 89.86192 
L 91.198728 89.906388 
L 91.087548 89.949139 
L 90.975688 89.990184 
L 90.863245 90.029535 
L 90.73858 90.069176 
L 90.621731 90.105248 
L 90.506405 90.13954 
L 90.391368 90.172231 
L 90.276447 90.203329 
L 90.16173 90.232841 
L 90.035926 90.262294 
L 89.917667 90.288752 
L 89.802293 90.313499 
L 89.688713 90.336752 
L 89.566288 90.359755 
L 89.451561 90.380217 
L 89.341364 90.399034 
L 89.225686 90.417402 
L 89.118962 90.43354 
L 89.011194 90.448884 
L 88.914696 90.462102 
L 88.821913 90.474308 
L 88.743496 90.484404 
L 88.679124 90.492638 
L 88.327092 90.337588 
" clip-path="url(#p1570c7b0a5)" style="fill: none; stroke: #808080; stroke-opacity: 0.75; stroke-width: 0.75; stroke-linecap: square"/>
   </g>
   <g id="line2d_23">
    <path d="M 244.696357 191.582927 
L 244.484125 191.70195 
L 244.271823 191.820271 
L 244.059667 191.937801 
L 243.847601 192.054559 
L 243.635638 192.170538 
L 243.423789 192.285729 
L 243.212066 192.400126 
L 243.000481 192.513719 
L 242.789045 192.626501 
L 242.577768 192.738463 
L 242.366662 192.849598 
L 242.155738 192.959897 
L 241.945006 193.06935 
L 241.734477 193.17795 
L 241.524163 193.285687 
L 241.314073 193.392552 
L 241.104219 193.498535 
L 240.894613 193.603627 
L 240.680818 193.709276 
L 240.471125 193.812738 
L 240.261716 193.915282 
L 240.052568 194.0169 
L 239.843693 194.11758 
L 239.635104 194.217311 
L 239.426816 194.31608 
L 239.218841 194.413873 
L 239.011194 194.510679 
L 238.803889 194.606484 
L 238.596942 194.701273 
L 238.390368 194.795031 
L 238.184183 194.887746 
L 237.978403 194.979401 
L 237.773045 195.06998 
L 237.560643 195.161383 
L 237.355294 195.249911 
L 237.150637 195.337303 
L 236.946459 195.423556 
L 236.742773 195.50865 
L 236.539597 195.592567 
L 236.336954 195.675287 
L 236.134867 195.756792 
L 235.93336 195.837059 
L 235.732458 195.91607 
L 235.523866 195.995437 
L 235.3231 196.071943 
L 235.123465 196.147129 
L 234.924554 196.220973 
L 234.726367 196.293447 
L 234.528933 196.364526 
L 234.32449 196.435352 
L 234.127452 196.503565 
L 233.931794 196.570338 
L 233.737064 196.63562 
L 233.536282 196.700147 
L 233.342266 196.762294 
L 233.149767 196.822909 
L 232.952149 196.882399 
L 232.760731 196.939679 
L 232.565519 196.995608 
L 232.37597 197.049483 
L 232.183193 197.101792 
L 231.995713 197.152122 
L 231.809976 197.200721 
L 231.616702 197.247387 
L 231.497371 197.28484 
L 231.312738 197.333862 
L 231.135011 197.376207 
L 230.960599 197.415816 
L 230.788772 197.453393 
L 230.619481 197.489049 
L 230.438591 197.523944 
L 230.268635 197.555154 
L 230.104592 197.584416 
L 229.932365 197.612659 
L 229.771046 197.637717 
L 229.616634 197.660952 
L 229.45683 197.683067 
L 229.308299 197.70242 
L 229.158443 197.720484 
L 229.021386 197.736213 
L 228.886666 197.750883 
L 228.759273 197.763974 
L 228.649314 197.7753 
L 228.55572 197.785529 
L 228.478863 197.794701 
L 227.933815 197.606424 
" clip-path="url(#p1570c7b0a5)" style="fill: none; stroke: #808080; stroke-opacity: 0.75; stroke-width: 0.75; stroke-linecap: square"/>
   </g>
   <g id="line2d_24">
    <path d="M 202.538293 186.334261 
L 202.735239 186.390581 
L 202.932118 186.447603 
L 203.128811 186.505267 
L 203.325368 186.563583 
L 203.521795 186.622545 
L 203.718098 186.682148 
L 203.914286 186.742384 
L 204.110364 186.803249 
L 204.30634 186.864735 
L 204.50222 186.926839 
L 204.698012 186.989553 
L 204.893721 187.052873 
L 205.089355 187.116794 
L 205.284919 187.18131 
L 205.48042 187.246416 
L 205.675865 187.312108 
L 205.871259 187.37838 
L 206.066609 187.445227 
L 206.264351 187.513777 
L 206.459961 187.581918 
L 206.655552 187.650627 
L 206.85114 187.719902 
L 207.04673 187.78974 
L 207.242326 187.860136 
L 207.437933 187.931084 
L 207.633553 188.002581 
L 207.829193 188.074622 
L 208.024853 188.147202 
L 208.220539 188.220317 
L 208.416253 188.293962 
L 208.611997 188.368132 
L 208.807774 188.442823 
L 209.003586 188.51803 
L 209.203175 188.595521 
L 209.399446 188.671927 
L 209.595713 188.748817 
L 209.792033 188.826211 
L 209.988407 188.904102 
L 210.184837 188.982487 
L 210.38132 189.06136 
L 210.577855 189.140715 
L 210.774442 189.220546 
L 210.971078 189.300847 
L 211.171579 189.383434 
L 211.368697 189.464841 
L 211.565776 189.546667 
L 211.762899 189.628943 
L 211.960064 189.711663 
L 212.157266 189.794819 
L 212.357747 189.879951 
L 212.555347 189.964115 
L 212.752886 190.048661 
L 212.950438 190.133614 
L 213.150613 190.220206 
L 213.348452 190.306078 
L 213.546213 190.392308 
L 213.746042 190.479892 
L 213.943978 190.566961 
L 214.143442 190.65512 
L 214.341404 190.742948 
L 214.540566 190.831699 
L 214.738474 190.920236 
L 214.936241 191.009072 
L 215.136096 191.099013 
L 215.303218 191.173366 
L 215.512855 191.269267 
L 215.710275 191.359239 
L 215.906353 191.448892 
L 216.101992 191.538671 
L 216.297265 191.628602 
L 216.499009 191.722024 
L 216.694593 191.812699 
L 216.88911 191.903203 
L 217.088739 191.996527 
L 217.283018 192.087508 
L 217.476211 192.178314 
L 217.673585 192.271483 
L 217.866133 192.362578 
L 218.061658 192.455474 
L 218.252828 192.546566 
L 218.446366 192.639203 
L 218.638909 192.7317 
L 218.827727 192.822827 
L 219.015405 192.913944 
L 219.202181 193.005196 
L 219.398783 193.093701 
L 219.517052 193.146634 
L 219.672181 193.219931 
L 219.860647 193.310977 
L 220.023721 193.38976 
L 220.215347 193.483221 
L 220.398271 193.572641 
L 220.577461 193.660362 
L 220.754629 193.747236 
L 220.93036 193.833562 
L 221.123263 193.928862 
L 221.287174 194.009637 
L 221.473158 194.101745 
L 221.650793 194.18987 
L 221.823901 194.27585 
L 221.993924 194.360404 
L 222.178023 194.45232 
L 222.351834 194.539223 
L 222.519446 194.623097 
L 222.697156 194.712273 
L 222.864226 194.796206 
L 223.037068 194.883226 
L 223.198076 194.964353 
L 223.350206 195.041033 
L 223.505454 195.119389 
L 223.658044 195.196513 
L 223.803763 195.27024 
L 223.931419 195.334825 
L 224.049388 195.3945 
L 224.147606 195.444145 
L 224.222363 195.481875 
L 224.277926 195.509866 
L 224.314864 195.528434 
L 224.446684 195.570001 
" clip-path="url(#p1570c7b0a5)" style="fill: none; stroke: #808080; stroke-opacity: 0.75; stroke-width: 0.75; stroke-linecap: square"/>
   </g>
   <g id="line2d_25">
    <path d="M 89.823855 103.046933 
L 89.154379 98.600954 
L 88.769388 94.541892 
L 88.543023 90.651485 
L 88.023296 90.079345 
L 85.8884 88.416905 
L 83.146903 86.545483 
L 75.733779 81.775562 
L 75.733779 81.775562 
" clip-path="url(#p1570c7b0a5)" style="fill: none; stroke: #808080; stroke-opacity: 0.75; stroke-width: 0.75; stroke-linecap: square"/>
   </g>
   <g id="line2d_26">
    <path d="M 31.536136 105.840878 
L 45.026639 95.435986 
L 49.176386 92.783365 
L 51.438717 91.443514 
L 56.118566 88.938807 
L 58.737985 87.687872 
L 62.846267 85.944066 
L 66.814259 84.50186 
L 71.241758 83.123477 
L 75.733779 81.775562 
L 75.733779 81.775562 
" clip-path="url(#p1570c7b0a5)" style="fill: none; stroke: #808080; stroke-opacity: 0.75; stroke-width: 0.75; stroke-linecap: square"/>
   </g>
   <g id="line2d_27">
    <path d="M 34.285953 17.083636 
L 39.61906 27.603994 
L 43.524681 34.679994 
L 46.553349 39.716097 
L 49.917764 44.883551 
L 53.393993 49.806479 
L 57.952646 55.804446 
L 72.939095 74.572804 
L 77.231298 79.620642 
L 77.267384 79.657242 
L 77.935929 80.136496 
L 77.935929 80.136496 
" clip-path="url(#p1570c7b0a5)" style="fill: none; stroke: #808080; stroke-opacity: 0.75; stroke-width: 0.75; stroke-linecap: square"/>
   </g>
   <g id="line2d_28">
    <path d="M 154.288938 113.845044 
L 151.803272 113.370211 
L 148.82045 112.56386 
L 145.247489 111.356636 
L 142.492732 110.259471 
L 136.995102 107.873821 
L 128.834821 104.100383 
L 121.621421 100.46897 
L 114.471744 96.540698 
L 109.755605 93.975187 
L 109.119754 93.756994 
L 86.614323 83.694304 
L 86.614323 83.694304 
" clip-path="url(#p1570c7b0a5)" style="fill: none; stroke: #808080; stroke-opacity: 0.75; stroke-width: 0.75; stroke-linecap: square"/>
   </g>
   <g id="line2d_29">
    <path d="M 241.855337 31.82247 
L 240.011544 33.128079 
L 238.221312 34.132003 
L 236.163939 35.046472 
L 233.449274 35.970513 
L 230.788209 36.638685 
L 224.81669 37.806302 
L 222.535643 38.278487 
L 219.509574 39.421617 
L 212.097285 42.390821 
L 204.868108 45.526003 
L 197.858747 48.806967 
L 191.005741 52.260157 
L 184.345755 55.864894 
L 177.849894 59.633934 
L 171.553636 63.543065 
L 165.398386 67.626272 
L 159.420732 71.858208 
L 153.597322 76.25375 
L 147.968071 80.78071 
L 142.550873 85.420806 
L 137.444696 90.084322 
L 133.035282 94.401834 
L 129.568035 98.102459 
L 128.490767 99.517867 
L 128.464303 99.565841 
L 128.643941 100.376224 
L 128.643941 100.376224 
" clip-path="url(#p1570c7b0a5)" style="fill: none; stroke: #808080; stroke-opacity: 0.75; stroke-width: 0.75; stroke-linecap: square"/>
   </g>
   <g id="line2d_30">
    <path d="M 232.140498 214.756364 
L 231.414578 209.031034 
L 230.719155 205.129103 
L 229.90507 201.898251 
L 229.074188 199.489291 
L 228.38208 197.974038 
L 227.419183 197.313265 
L 224.19872 195.348305 
L 221.252441 192.895896 
L 218.730241 191.012936 
L 215.920641 188.968962 
L 208.793525 182.819831 
L 202.008914 176.674106 
L 195.530524 170.507281 
L 189.323614 164.293191 
L 183.355187 158.003995 
L 177.594166 151.610299 
L 172.01138 145.081666 
L 166.451271 138.233321 
L 163.794403 135.035354 
L 163.69785 134.930733 
L 163.388157 134.929134 
L 161.409054 132.968162 
L 139.102208 110.818936 
L 139.102208 110.818936 
" clip-path="url(#p1570c7b0a5)" style="fill: none; stroke: #808080; stroke-opacity: 0.75; stroke-width: 0.75; stroke-linecap: square"/>
   </g>
   <g id="line2d_31">
    <path d="M 65.452699 56.982613 
L 65.803281 60.089444 
L 66.375577 63.169012 
L 67.233031 66.480274 
L 68.304979 69.69309 
L 69.562085 72.707309 
L 70.970641 75.518775 
L 72.526039 78.069 
L 74.18833 80.2772 
L 75.5624 81.815757 
L 75.859739 81.64897 
L 77.364293 79.79593 
L 78.702747 80.464805 
L 88.769819 84.493423 
L 110.213561 92.586194 
L 124.751487 98.304083 
L 128.339561 99.644291 
L 128.887635 100.67654 
L 139.293406 111.008783 
L 139.102208 110.818936 
" clip-path="url(#p1570c7b0a5)" style="fill: none; stroke: #808080; stroke-opacity: 0.75; stroke-width: 0.75; stroke-linecap: square"/>
   </g>
   <g id="PathCollection_1">
    <defs>
     <path id="C0_0_56a5f58a0b" d="M 0 1.581139 
C 0.419323 1.581139 0.821528 1.41454 1.118034 1.118034 
C 1.41454 0.821528 1.581139 0.419323 1.581139 -0 
C 1.581139 -0.419323 1.41454 -0.821528 1.118034 -1.118034 
C 0.821528 -1.41454 0.419323 -1.581139 0 -1.581139 
C -0.419323 -1.581139 -0.821528 -1.41454 -1.118034 -1.118034 
C -1.41454 -0.821528 -1.581139 -0.419323 -1.581139 0 
C -1.581139 0.419323 -1.41454 0.821528 -1.118034 1.118034 
C -0.821528 1.41454 -0.419323 1.581139 0 1.581139 
z
"/>
    </defs>
    <g clip-path="url(#p1570c7b0a5)">
     <use xlink:href="#C0_0_56a5f58a0b" x="65.452699" y="56.982613" style="fill: #36ada4; stroke: #36ada4"/>
    </g>
    <g clip-path="url(#p1570c7b0a5)">
     <use xlink:href="#C0_0_56a5f58a0b" x="89.823855" y="103.046933" style="fill: #36ada4; stroke: #36ada4"/>
    </g>
    <g clip-path="url(#p1570c7b0a5)">
     <use xlink:href="#C0_0_56a5f58a0b" x="34.285953" y="17.083636" style="fill: #36ada4; stroke: #36ada4"/>
    </g>
    <g clip-path="url(#p1570c7b0a5)">
     <use xlink:href="#C0_0_56a5f58a0b" x="232.140498" y="214.756364" style="fill: #f77189; stroke: #f77189"/>
    </g>
    <g clip-path="url(#p1570c7b0a5)">
     <use xlink:href="#C0_0_56a5f58a0b" x="244.696357" y="191.582927" style="fill: #f77189; stroke: #f77189"/>
    </g>
    <g clip-path="url(#p1570c7b0a5)">
     <use xlink:href="#C0_0_56a5f58a0b" x="94.404009" y="86.894237" style="fill: #36ada4; stroke: #36ada4"/>
    </g>
    <g clip-path="url(#p1570c7b0a5)">
     <use xlink:href="#C0_0_56a5f58a0b" x="241.855337" y="31.82247" style="fill: #36ada4; stroke: #36ada4"/>
    </g>
    <g clip-path="url(#p1570c7b0a5)">
     <use xlink:href="#C0_0_56a5f58a0b" x="31.536136" y="105.840878" style="fill: #36ada4; stroke: #36ada4"/>
    </g>
    <g clip-path="url(#p1570c7b0a5)">
     <use xlink:href="#C0_0_56a5f58a0b" x="154.288938" y="113.845044" style="fill: #36ada4; stroke: #36ada4"/>
    </g>
    <g clip-path="url(#p1570c7b0a5)">
     <use xlink:href="#C0_0_56a5f58a0b" x="202.538293" y="186.334261" style="fill: #f77189; stroke: #f77189"/>
    </g>
   </g>
   <g id="PathCollection_2">
    <defs>
     <path id="m7bd56b82d2" d="M 0 1.118034 
C 0.296506 1.118034 0.580908 1.000231 0.790569 0.790569 
C 1.000231 0.580908 1.118034 0.296506 1.118034 0 
C 1.118034 -0.296506 1.000231 -0.580908 0.790569 -0.790569 
C 0.580908 -1.000231 0.296506 -1.118034 0 -1.118034 
C -0.296506 -1.118034 -0.580908 -1.000231 -0.790569 -0.790569 
C -1.000231 -0.580908 -1.118034 -0.296506 -1.118034 0 
C -1.118034 0.296506 -1.000231 0.580908 -0.790569 0.790569 
C -0.580908 1.000231 -0.296506 1.118034 0 1.118034 
z
" style="stroke: #000000"/>
    </defs>
    <g clip-path="url(#p1570c7b0a5)">
     <use xlink:href="#m7bd56b82d2" x="139.102208" y="110.818936" style="stroke: #000000"/>
    </g>
   </g>
   <g id="matplotlib.axis_1">
    <g id="text_1">
     <!-- $x_1$ -->
     <g transform="translate(132.766247 236.238437) scale(0.1 -0.1)">
      <defs>
       <path id="DejaVuSans-Oblique-78" d="M 3841 3500 
L 2234 1784 
L 3219 0 
L 2559 0 
L 1819 1388 
L 531 0 
L -166 0 
L 1556 1844 
L 641 3500 
L 1300 3500 
L 1972 2234 
L 3144 3500 
L 3841 3500 
z
" transform="scale(0.015625)"/>
       <path id="DejaVuSans-31" d="M 794 531 
L 1825 531 
L 1825 4091 
L 703 3866 
L 703 4441 
L 1819 4666 
L 2450 4666 
L 2450 531 
L 3481 531 
L 3481 0 
L 794 0 
L 794 531 
z
" transform="scale(0.015625)"/>
      </defs>
      <use xlink:href="#DejaVuSans-Oblique-78" transform="translate(0 0.3125)"/>
      <use xlink:href="#DejaVuSans-31" transform="translate(59.179688 -16.09375) scale(0.7)"/>
     </g>
    </g>
   </g>
   <g id="matplotlib.axis_2">
    <g id="text_2">
     <!-- $x_2$ -->
     <g transform="translate(14.798438 121.27) rotate(-90) scale(0.1 -0.1)">
      <defs>
       <path id="DejaVuSans-32" d="M 1228 531 
L 3431 531 
L 3431 0 
L 469 0 
L 469 531 
Q 828 903 1448 1529 
Q 2069 2156 2228 2338 
Q 2531 2678 2651 2914 
Q 2772 3150 2772 3378 
Q 2772 3750 2511 3984 
Q 2250 4219 1831 4219 
Q 1534 4219 1204 4116 
Q 875 4013 500 3803 
L 500 4441 
Q 881 4594 1212 4672 
Q 1544 4750 1819 4750 
Q 2544 4750 2975 4387 
Q 3406 4025 3406 3419 
Q 3406 3131 3298 2873 
Q 3191 2616 2906 2266 
Q 2828 2175 2409 1742 
Q 1991 1309 1228 531 
z
" transform="scale(0.015625)"/>
      </defs>
      <use xlink:href="#DejaVuSans-Oblique-78" transform="translate(0 0.3125)"/>
      <use xlink:href="#DejaVuSans-32" transform="translate(59.179688 -16.09375) scale(0.7)"/>
     </g>
    </g>
   </g>
   <g id="patch_3">
    <path d="M 20.878125 224.64 
L 20.878125 7.2 
" style="fill: none; stroke: #000000; stroke-width: 0.8; stroke-linejoin: miter; stroke-linecap: square"/>
   </g>
   <g id="patch_4">
    <path d="M 255.354368 224.64 
L 255.354368 7.2 
" style="fill: none; stroke: #000000; stroke-width: 0.8; stroke-linejoin: miter; stroke-linecap: square"/>
   </g>
   <g id="patch_5">
    <path d="M 20.878125 224.64 
L 255.354368 224.64 
" style="fill: none; stroke: #000000; stroke-width: 0.8; stroke-linejoin: miter; stroke-linecap: square"/>
   </g>
   <g id="patch_6">
    <path d="M 20.878125 7.2 
L 255.354368 7.2 
" style="fill: none; stroke: #000000; stroke-width: 0.8; stroke-linejoin: miter; stroke-linecap: square"/>
   </g>
  </g>
 </g>
 <defs>
  <clipPath id="p1570c7b0a5">
   <rect x="20.878125" y="7.2" width="234.476243" height="217.44"/>
  </clipPath>
 </defs>
</svg>
