<?xml version="1.0" encoding="utf-8" standalone="no"?>
<!DOCTYPE svg PUBLIC "-//W3C//DTD SVG 1.1//EN"
  "http://www.w3.org/Graphics/SVG/1.1/DTD/svg11.dtd">
<svg xmlns:xlink="http://www.w3.org/1999/xlink" width="262.554368pt" height="245.518125pt" viewBox="0 0 262.554368 245.518125" xmlns="http://www.w3.org/2000/svg" version="1.1">
 <metadata>
  <rdf:RDF xmlns:dc="http://purl.org/dc/elements/1.1/" xmlns:cc="http://creativecommons.org/ns#" xmlns:rdf="http://www.w3.org/1999/02/22-rdf-syntax-ns#">
   <cc:Work>
    <dc:type rdf:resource="http://purl.org/dc/dcmitype/StillImage"/>
    <dc:date>2023-07-27T16:27:38.828741</dc:date>
    <dc:format>image/svg+xml</dc:format>
    <dc:creator>
     <cc:Agent>
      <dc:title>Matplotlib v3.7.1, https://matplotlib.org/</dc:title>
     </cc:Agent>
    </dc:creator>
   </cc:Work>
  </rdf:RDF>
 </metadata>
 <defs>
  <style type="text/css">*{stroke-linejoin: round; stroke-linecap: butt}</style>
 </defs>
 <g id="figure_1">
  <g id="patch_1">
   <path d="M 0 245.518125 
L 262.554368 245.518125 
L 262.554368 0 
L 0 0 
z
" style="fill: #ffffff"/>
  </g>
  <g id="axes_1">
   <g id="patch_2">
    <path d="M 20.878125 224.64 
L 255.354368 224.64 
L 255.354368 7.2 
L 20.878125 7.2 
z
" style="fill: #ffffff"/>
   </g>
   <g id="line2d_1">
    <path d="M 65.452699 56.982613 
L 89.823855 103.046933 
" clip-path="url(#p245021586b)" style="fill: none; stroke-dasharray: 1.85,0.8; stroke-dashoffset: 0; stroke: #808080; stroke-opacity: 0.35; stroke-width: 0.5"/>
   </g>
   <g id="line2d_2">
    <path d="M 65.452699 56.982613 
L 34.285953 17.083636 
" clip-path="url(#p245021586b)" style="fill: none; stroke-dasharray: 1.85,0.8; stroke-dashoffset: 0; stroke: #808080; stroke-opacity: 0.35; stroke-width: 0.5"/>
   </g>
   <g id="line2d_3">
    <path d="M 232.140498 214.756364 
L 244.696357 191.582927 
" clip-path="url(#p245021586b)" style="fill: none; stroke-dasharray: 1.85,0.8; stroke-dashoffset: 0; stroke: #808080; stroke-opacity: 0.35; stroke-width: 0.5"/>
   </g>
   <g id="line2d_4">
    <path d="M 65.452699 56.982613 
L 94.404009 86.894237 
" clip-path="url(#p245021586b)" style="fill: none; stroke-dasharray: 1.85,0.8; stroke-dashoffset: 0; stroke: #808080; stroke-opacity: 0.35; stroke-width: 0.5"/>
   </g>
   <g id="line2d_5">
    <path d="M 89.823855 103.046933 
L 94.404009 86.894237 
" clip-path="url(#p245021586b)" style="fill: none; stroke-dasharray: 1.85,0.8; stroke-dashoffset: 0; stroke: #808080; stroke-opacity: 0.35; stroke-width: 0.5"/>
   </g>
   <g id="line2d_6">
    <path d="M 94.404009 86.894237 
L 241.855337 31.82247 
" clip-path="url(#p245021586b)" style="fill: none; stroke-dasharray: 1.85,0.8; stroke-dashoffset: 0; stroke: #808080; stroke-opacity: 0.35; stroke-width: 0.5"/>
   </g>
   <g id="line2d_7">
    <path d="M 65.452699 56.982613 
L 31.536136 105.840878 
" clip-path="url(#p245021586b)" style="fill: none; stroke-dasharray: 1.85,0.8; stroke-dashoffset: 0; stroke: #808080; stroke-opacity: 0.35; stroke-width: 0.5"/>
   </g>
   <g id="line2d_8">
    <path d="M 89.823855 103.046933 
L 31.536136 105.840878 
" clip-path="url(#p245021586b)" style="fill: none; stroke-dasharray: 1.85,0.8; stroke-dashoffset: 0; stroke: #808080; stroke-opacity: 0.35; stroke-width: 0.5"/>
   </g>
   <g id="line2d_9">
    <path d="M 34.285953 17.083636 
L 31.536136 105.840878 
" clip-path="url(#p245021586b)" style="fill: none; stroke-dasharray: 1.85,0.8; stroke-dashoffset: 0; stroke: #808080; stroke-opacity: 0.35; stroke-width: 0.5"/>
   </g>
   <g id="line2d_10">
    <path d="M 89.823855 103.046933 
L 154.288938 113.845044 
" clip-path="url(#p245021586b)" style="fill: none; stroke-dasharray: 1.85,0.8; stroke-dashoffset: 0; stroke: #808080; stroke-opacity: 0.35; stroke-width: 0.5"/>
   </g>
   <g id="line2d_11">
    <path d="M 94.404009 86.894237 
L 154.288938 113.845044 
" clip-path="url(#p245021586b)" style="fill: none; stroke-dasharray: 1.85,0.8; stroke-dashoffset: 0; stroke: #808080; stroke-opacity: 0.35; stroke-width: 0.5"/>
   </g>
   <g id="line2d_12">
    <path d="M 241.855337 31.82247 
L 154.288938 113.845044 
" clip-path="url(#p245021586b)" style="fill: none; stroke-dasharray: 1.85,0.8; stroke-dashoffset: 0; stroke: #808080; stroke-opacity: 0.35; stroke-width: 0.5"/>
   </g>
   <g id="line2d_13">
    <path d="M 232.140498 214.756364 
L 202.538293 186.334261 
" clip-path="url(#p245021586b)" style="fill: none; stroke-dasharray: 1.85,0.8; stroke-dashoffset: 0; stroke: #808080; stroke-opacity: 0.35; stroke-width: 0.5"/>
   </g>
   <g id="line2d_14">
    <path d="M 244.696357 191.582927 
L 202.538293 186.334261 
" clip-path="url(#p245021586b)" style="fill: none; stroke-dasharray: 1.85,0.8; stroke-dashoffset: 0; stroke: #808080; stroke-opacity: 0.35; stroke-width: 0.5"/>
   </g>
   <g id="line2d_15">
    <path d="M 94.404009 86.894237 
L 94.356806 87.0013 
L 94.307873 87.107621 
L 94.257228 87.213154 
L 94.204891 87.317855 
L 94.150877 87.421682 
L 94.095202 87.524596 
L 94.037882 87.62656 
L 93.978931 87.727538 
L 93.918365 87.827495 
L 93.856198 87.926398 
L 93.792445 88.024216 
L 93.727124 88.120917 
L 93.660249 88.216472 
L 93.591839 88.310852 
L 93.521911 88.40403 
L 93.446474 88.498651 
L 93.372906 88.589694 
L 93.297923 88.679438 
L 93.221473 88.767886 
L 93.143579 88.855012 
L 93.064267 88.940794 
L 92.983563 89.02521 
L 92.901496 89.108239 
L 92.818097 89.189863 
L 92.733398 89.270063 
L 92.647431 89.348822 
L 92.560234 89.426125 
L 92.471842 89.501956 
L 92.375182 89.579676 
L 92.283282 89.652865 
L 92.190768 89.724433 
L 92.097243 89.794485 
L 92.002712 89.863012 
L 91.907222 89.930002 
L 91.810827 89.995449 
L 91.713585 90.059347 
L 91.615558 90.121688 
L 91.516814 90.182467 
L 91.408536 90.245024 
L 91.306325 90.3031 
L 91.204705 90.359357 
L 91.102861 90.414034 
L 91.000727 90.467137 
L 90.898384 90.518655 
L 90.786928 90.571571 
L 90.681571 90.620421 
L 90.57782 90.667327 
L 90.474817 90.712581 
L 90.363917 90.75885 
L 90.259131 90.801407 
L 90.157043 90.841877 
L 90.049017 90.882896 
L 89.947674 90.920389 
L 89.84335 90.957646 
L 89.746987 90.991313 
L 89.650513 91.024132 
L 89.558349 91.054727 
L 89.478699 91.080873 
L 89.406879 91.104262 
L 89.350576 91.122605 
L 89.066551 90.997077 
" clip-path="url(#p245021586b)" style="fill: none; stroke: #808080; stroke-opacity: 0.75; stroke-width: 0.75; stroke-linecap: square"/>
   </g>
   <g id="line2d_16">
    <path d="M 244.696357 191.582927 
L 244.466034 191.715198 
L 244.235703 191.846926 
L 244.005376 191.978097 
L 243.775064 192.108695 
L 243.54478 192.238706 
L 243.314534 192.368114 
L 243.084337 192.496905 
L 242.8542 192.625061 
L 242.624133 192.752569 
L 242.394145 192.879411 
L 242.164249 193.005572 
L 241.934452 193.131035 
L 241.704767 193.255784 
L 241.475203 193.379801 
L 241.245772 193.50307 
L 241.012321 193.627172 
L 240.782497 193.749142 
L 240.552816 193.87032 
L 240.323264 193.99069 
L 240.093856 194.110232 
L 239.864606 194.228924 
L 239.635529 194.346745 
L 239.40664 194.463671 
L 239.177956 194.57968 
L 238.949493 194.694747 
L 238.72127 194.808847 
L 238.493306 194.921955 
L 238.265622 195.034044 
L 238.030918 195.147442 
L 237.802907 195.25765 
L 237.57539 195.366741 
L 237.34821 195.474704 
L 237.121389 195.581508 
L 236.894954 195.687118 
L 236.668935 195.791499 
L 236.443364 195.894617 
L 236.218276 195.996433 
L 235.993705 196.09691 
L 235.760517 196.198454 
L 235.535754 196.296323 
L 235.312079 196.392704 
L 235.089087 196.487579 
L 234.866796 196.580898 
L 234.645256 196.672613 
L 234.415421 196.764685 
L 234.194024 196.853147 
L 233.974168 196.939839 
L 233.755342 197.024714 
L 233.52911 197.109249 
L 233.310884 197.190332 
L 233.094519 197.269421 
L 232.87175 197.34759 
L 232.656557 197.42243 
L 232.436577 197.495904 
L 232.223727 197.5662 
L 232.00679 197.634749 
L 231.791082 197.700525 
L 231.582316 197.763331 
L 231.370753 197.823814 
L 231.165673 197.881174 
L 230.984701 197.934169 
L 230.814296 197.983835 
L 230.618783 198.035431 
L 230.429097 198.081941 
L 230.231946 198.126176 
L 230.046202 198.165604 
L 229.856655 198.202628 
L 229.679327 198.235252 
L 229.500544 198.265293 
L 229.325592 198.291507 
L 229.165388 198.313802 
L 229.008911 198.33358 
L 228.860639 198.350188 
L 228.7237 198.363876 
L 228.601009 198.375132 
L 228.499976 198.384373 
L 228.423445 198.392115 
L 227.849884 198.2107 
" clip-path="url(#p245021586b)" style="fill: none; stroke: #808080; stroke-opacity: 0.75; stroke-width: 0.75; stroke-linecap: square"/>
   </g>
   <g id="line2d_17">
    <path d="M 202.538293 186.334261 
L 202.796513 186.457986 
L 203.055062 186.581786 
L 203.313938 186.705661 
L 203.573142 186.829609 
L 203.832673 186.95363 
L 204.09253 187.077723 
L 204.352714 187.201888 
L 204.613225 187.326123 
L 204.874063 187.450429 
L 205.135229 187.574805 
L 205.396724 187.699251 
L 205.658547 187.823767 
L 205.920701 187.948353 
L 206.183186 188.073009 
L 206.446003 188.197736 
L 206.711679 188.323667 
L 206.975602 188.448733 
L 207.239892 188.573883 
L 207.504557 188.699123 
L 207.769598 188.824453 
L 208.035017 188.949873 
L 208.300814 189.075383 
L 208.566991 189.200985 
L 208.833547 189.326678 
L 209.100483 189.452464 
L 209.3678 189.578343 
L 209.635498 189.704316 
L 209.903575 189.830382 
L 210.176338 189.958467 
L 210.445712 190.084963 
L 210.715448 190.21155 
L 210.985593 190.338248 
L 211.256144 190.465057 
L 211.527102 190.591978 
L 211.798461 190.719011 
L 212.070221 190.846157 
L 212.342376 190.973414 
L 212.614922 191.100784 
L 212.893177 191.230648 
L 213.167136 191.35853 
L 213.441384 191.486488 
L 213.716025 191.61457 
L 213.991054 191.742774 
L 214.266461 191.8711 
L 214.547326 192.001828 
L 214.824102 192.130679 
L 215.10111 192.2596 
L 215.378466 192.388643 
L 215.660659 192.519827 
L 215.939268 192.649373 
L 216.21807 192.778986 
L 216.501074 192.91047 
L 216.780983 193.040548 
L 217.064305 193.172154 
L 217.345066 193.302602 
L 217.628802 193.434393 
L 217.912598 193.566215 
L 218.194529 193.697209 
L 218.47869 193.829225 
L 218.761115 193.960476 
L 219.0329 194.086906 
L 219.2984 194.210453 
L 219.585388 194.343886 
L 219.866048 194.47443 
L 220.153921 194.608334 
L 220.434451 194.738903 
L 220.721098 194.872346 
L 221.000815 195.002647 
L 221.285934 195.135507 
L 221.570523 195.268184 
L 221.848256 195.397756 
L 222.129992 195.529256 
L 222.410837 195.660411 
L 222.690123 195.790917 
L 222.967698 195.920703 
L 223.238965 196.047625 
L 223.502259 196.170896 
L 223.748955 196.286491 
L 223.940875 196.376586 
L 224.176363 196.487094 
L 224.427473 196.604922 
L 224.681117 196.723936 
L 224.930954 196.841163 
L 225.173138 196.954799 
L 225.414684 197.068135 
L 225.634982 197.171501 
L 225.840022 197.267709 
L 226.012013 197.348409 
L 226.142383 197.40958 
L 226.223207 197.447503 
L 226.458383 197.557851 
" clip-path="url(#p245021586b)" style="fill: none; stroke: #808080; stroke-opacity: 0.75; stroke-width: 0.75; stroke-linecap: square"/>
   </g>
   <g id="line2d_18">
    <path d="M 31.536136 105.840878 
L 40.578377 97.796453 
L 44.01294 95.053736 
L 47.481458 92.67024 
L 51.314643 90.321499 
L 54.752784 88.494006 
L 57.730262 87.105969 
L 61.208857 85.699878 
L 64.605238 84.55389 
L 68.215923 83.55585 
L 71.972684 82.735465 
L 76.516689 81.883858 
L 76.516689 81.883858 
" clip-path="url(#p245021586b)" style="fill: none; stroke: #808080; stroke-opacity: 0.75; stroke-width: 0.75; stroke-linecap: square"/>
   </g>
   <g id="line2d_19">
    <path d="M 89.823855 103.046933 
L 89.435701 98.12507 
L 89.269076 92.952411 
L 89.249335 91.277343 
L 88.798502 90.758405 
L 86.768391 89.105891 
L 83.733343 86.960122 
L 76.40408 82.031002 
L 76.516689 81.883858 
L 76.516689 81.883858 
" clip-path="url(#p245021586b)" style="fill: none; stroke: #808080; stroke-opacity: 0.75; stroke-width: 0.75; stroke-linecap: square"/>
   </g>
   <g id="line2d_20">
    <path d="M 34.285953 17.083636 
L 40.729754 30.878527 
L 43.120364 35.198822 
L 45.539335 39.110502 
L 47.668922 42.253902 
L 50.583105 46.192565 
L 53.809522 50.191097 
L 57.604304 54.551212 
L 60.799522 58.204091 
L 61.285367 58.862167 
L 61.775412 59.158976 
L 74.329663 74.012872 
L 78.851172 78.896666 
L 79.032893 79.0678 
L 79.564321 79.406635 
L 79.564321 79.406635 
" clip-path="url(#p245021586b)" style="fill: none; stroke: #808080; stroke-opacity: 0.75; stroke-width: 0.75; stroke-linecap: square"/>
   </g>
   <g id="line2d_21">
    <path d="M 154.288938 113.845044 
L 146.15605 110.014034 
L 127.40668 101.17854 
L 104.639901 90.530133 
L 86.408968 81.849526 
L 84.550284 81.160377 
L 81.034231 79.799814 
L 81.034231 79.799814 
" clip-path="url(#p245021586b)" style="fill: none; stroke: #808080; stroke-opacity: 0.75; stroke-width: 0.75; stroke-linecap: square"/>
   </g>
   <g id="line2d_22">
    <path d="M 241.855337 31.82247 
L 240.267339 32.937393 
L 238.583833 33.851778 
L 236.613164 34.665844 
L 234.40007 35.334906 
L 231.642816 35.921626 
L 228.833112 36.294715 
L 225.37517 36.738941 
L 101.663847 73.645116 
L 101.663847 73.645116 
" clip-path="url(#p245021586b)" style="fill: none; stroke: #808080; stroke-opacity: 0.75; stroke-width: 0.75; stroke-linecap: square"/>
   </g>
   <g id="line2d_23">
    <path d="M 65.452699 56.982613 
L 65.7858 60.139537 
L 66.376992 63.44106 
L 67.20769 66.750951 
L 68.1872 69.766263 
L 69.409983 72.761791 
L 70.651653 75.229056 
L 72.077687 77.517717 
L 73.426594 79.244739 
L 74.84688 80.711287 
L 76.260109 81.926977 
L 76.662821 81.755962 
L 79.134444 79.206442 
L 80.388598 79.667957 
L 81.185931 79.893947 
L 81.142089 79.767272 
L 101.984381 73.549493 
L 101.663847 73.645116 
" clip-path="url(#p245021586b)" style="fill: none; stroke: #808080; stroke-opacity: 0.75; stroke-width: 0.75; stroke-linecap: square"/>
   </g>
   <g id="line2d_24">
    <path d="M 232.140498 214.756364 
L 231.406856 209.01162 
L 230.690503 205.027591 
L 229.979224 202.230307 
L 229.175731 200.026343 
L 228.436808 198.672487 
L 228.347109 198.530533 
L 227.139242 197.877318 
L 226.413396 197.536743 
L 226.458383 197.557851 
" clip-path="url(#p245021586b)" style="fill: none; stroke: #808080; stroke-opacity: 0.75; stroke-width: 0.75; stroke-linecap: square"/>
   </g>
   <g id="PathCollection_1">
    <defs>
     <path id="C0_0_766e8a19a3" d="M 0 1.581139 
C 0.419323 1.581139 0.821528 1.41454 1.118034 1.118034 
C 1.41454 0.821528 1.581139 0.419323 1.581139 -0 
C 1.581139 -0.419323 1.41454 -0.821528 1.118034 -1.118034 
C 0.821528 -1.41454 0.419323 -1.581139 0 -1.581139 
C -0.419323 -1.581139 -0.821528 -1.41454 -1.118034 -1.118034 
C -1.41454 -0.821528 -1.581139 -0.419323 -1.581139 0 
C -1.581139 0.419323 -1.41454 0.821528 -1.118034 1.118034 
C -0.821528 1.41454 -0.419323 1.581139 0 1.581139 
z
"/>
    </defs>
    <g clip-path="url(#p245021586b)">
     <use xlink:href="#C0_0_766e8a19a3" x="65.452699" y="56.982613" style="fill: #36ada4; stroke: #36ada4"/>
    </g>
    <g clip-path="url(#p245021586b)">
     <use xlink:href="#C0_0_766e8a19a3" x="89.823855" y="103.046933" style="fill: #36ada4; stroke: #36ada4"/>
    </g>
    <g clip-path="url(#p245021586b)">
     <use xlink:href="#C0_0_766e8a19a3" x="34.285953" y="17.083636" style="fill: #36ada4; stroke: #36ada4"/>
    </g>
    <g clip-path="url(#p245021586b)">
     <use xlink:href="#C0_0_766e8a19a3" x="232.140498" y="214.756364" style="fill: #f77189; stroke: #f77189"/>
    </g>
    <g clip-path="url(#p245021586b)">
     <use xlink:href="#C0_0_766e8a19a3" x="244.696357" y="191.582927" style="fill: #f77189; stroke: #f77189"/>
    </g>
    <g clip-path="url(#p245021586b)">
     <use xlink:href="#C0_0_766e8a19a3" x="94.404009" y="86.894237" style="fill: #36ada4; stroke: #36ada4"/>
    </g>
    <g clip-path="url(#p245021586b)">
     <use xlink:href="#C0_0_766e8a19a3" x="241.855337" y="31.82247" style="fill: #36ada4; stroke: #36ada4"/>
    </g>
    <g clip-path="url(#p245021586b)">
     <use xlink:href="#C0_0_766e8a19a3" x="31.536136" y="105.840878" style="fill: #36ada4; stroke: #36ada4"/>
    </g>
    <g clip-path="url(#p245021586b)">
     <use xlink:href="#C0_0_766e8a19a3" x="154.288938" y="113.845044" style="fill: #36ada4; stroke: #36ada4"/>
    </g>
    <g clip-path="url(#p245021586b)">
     <use xlink:href="#C0_0_766e8a19a3" x="202.538293" y="186.334261" style="fill: #f77189; stroke: #f77189"/>
    </g>
   </g>
   <g id="PathCollection_2">
    <defs>
     <path id="m180979aff1" d="M 0 1.118034 
C 0.296506 1.118034 0.580908 1.000231 0.790569 0.790569 
C 1.000231 0.580908 1.118034 0.296506 1.118034 0 
C 1.118034 -0.296506 1.000231 -0.580908 0.790569 -0.790569 
C 0.580908 -1.000231 0.296506 -1.118034 0 -1.118034 
C -0.296506 -1.118034 -0.580908 -1.000231 -0.790569 -0.790569 
C -1.000231 -0.580908 -1.118034 -0.296506 -1.118034 0 
C -1.118034 0.296506 -1.000231 0.580908 -0.790569 0.790569 
C -0.580908 1.000231 -0.296506 1.118034 0 1.118034 
z
" style="stroke: #000000"/>
    </defs>
    <g clip-path="url(#p245021586b)">
     <use xlink:href="#m180979aff1" x="101.663847" y="73.645116" style="stroke: #000000"/>
    </g>
   </g>
   <g id="PathCollection_3">
    <g clip-path="url(#p245021586b)">
     <use xlink:href="#m180979aff1" x="226.458383" y="197.557851" style="stroke: #000000"/>
    </g>
   </g>
   <g id="matplotlib.axis_1">
    <g id="text_1">
     <!-- $x_1$ -->
     <g transform="translate(132.766247 236.238437) scale(0.1 -0.1)">
      <defs>
       <path id="DejaVuSans-Oblique-78" d="M 3841 3500 
L 2234 1784 
L 3219 0 
L 2559 0 
L 1819 1388 
L 531 0 
L -166 0 
L 1556 1844 
L 641 3500 
L 1300 3500 
L 1972 2234 
L 3144 3500 
L 3841 3500 
z
" transform="scale(0.015625)"/>
       <path id="DejaVuSans-31" d="M 794 531 
L 1825 531 
L 1825 4091 
L 703 3866 
L 703 4441 
L 1819 4666 
L 2450 4666 
L 2450 531 
L 3481 531 
L 3481 0 
L 794 0 
L 794 531 
z
" transform="scale(0.015625)"/>
      </defs>
      <use xlink:href="#DejaVuSans-Oblique-78" transform="translate(0 0.3125)"/>
      <use xlink:href="#DejaVuSans-31" transform="translate(59.179688 -16.09375) scale(0.7)"/>
     </g>
    </g>
   </g>
   <g id="matplotlib.axis_2">
    <g id="text_2">
     <!-- $x_2$ -->
     <g transform="translate(14.798438 121.27) rotate(-90) scale(0.1 -0.1)">
      <defs>
       <path id="DejaVuSans-32" d="M 1228 531 
L 3431 531 
L 3431 0 
L 469 0 
L 469 531 
Q 828 903 1448 1529 
Q 2069 2156 2228 2338 
Q 2531 2678 2651 2914 
Q 2772 3150 2772 3378 
Q 2772 3750 2511 3984 
Q 2250 4219 1831 4219 
Q 1534 4219 1204 4116 
Q 875 4013 500 3803 
L 500 4441 
Q 881 4594 1212 4672 
Q 1544 4750 1819 4750 
Q 2544 4750 2975 4387 
Q 3406 4025 3406 3419 
Q 3406 3131 3298 2873 
Q 3191 2616 2906 2266 
Q 2828 2175 2409 1742 
Q 1991 1309 1228 531 
z
" transform="scale(0.015625)"/>
      </defs>
      <use xlink:href="#DejaVuSans-Oblique-78" transform="translate(0 0.3125)"/>
      <use xlink:href="#DejaVuSans-32" transform="translate(59.179688 -16.09375) scale(0.7)"/>
     </g>
    </g>
   </g>
   <g id="patch_3">
    <path d="M 20.878125 224.64 
L 20.878125 7.2 
" style="fill: none; stroke: #000000; stroke-width: 0.8; stroke-linejoin: miter; stroke-linecap: square"/>
   </g>
   <g id="patch_4">
    <path d="M 255.354368 224.64 
L 255.354368 7.2 
" style="fill: none; stroke: #000000; stroke-width: 0.8; stroke-linejoin: miter; stroke-linecap: square"/>
   </g>
   <g id="patch_5">
    <path d="M 20.878125 224.64 
L 255.354368 224.64 
" style="fill: none; stroke: #000000; stroke-width: 0.8; stroke-linejoin: miter; stroke-linecap: square"/>
   </g>
   <g id="patch_6">
    <path d="M 20.878125 7.2 
L 255.354368 7.2 
" style="fill: none; stroke: #000000; stroke-width: 0.8; stroke-linejoin: miter; stroke-linecap: square"/>
   </g>
  </g>
 </g>
 <defs>
  <clipPath id="p245021586b">
   <rect x="20.878125" y="7.2" width="234.476243" height="217.44"/>
  </clipPath>
 </defs>
</svg>
