<?xml version="1.0" encoding="utf-8" standalone="no"?>
<!DOCTYPE svg PUBLIC "-//W3C//DTD SVG 1.1//EN"
  "http://www.w3.org/Graphics/SVG/1.1/DTD/svg11.dtd">
<svg xmlns:xlink="http://www.w3.org/1999/xlink" width="262.554368pt" height="245.518125pt" viewBox="0 0 262.554368 245.518125" xmlns="http://www.w3.org/2000/svg" version="1.1">
 <metadata>
  <rdf:RDF xmlns:dc="http://purl.org/dc/elements/1.1/" xmlns:cc="http://creativecommons.org/ns#" xmlns:rdf="http://www.w3.org/1999/02/22-rdf-syntax-ns#">
   <cc:Work>
    <dc:type rdf:resource="http://purl.org/dc/dcmitype/StillImage"/>
    <dc:date>2023-07-27T16:28:14.775312</dc:date>
    <dc:format>image/svg+xml</dc:format>
    <dc:creator>
     <cc:Agent>
      <dc:title>Matplotlib v3.7.1, https://matplotlib.org/</dc:title>
     </cc:Agent>
    </dc:creator>
   </cc:Work>
  </rdf:RDF>
 </metadata>
 <defs>
  <style type="text/css">*{stroke-linejoin: round; stroke-linecap: butt}</style>
 </defs>
 <g id="figure_1">
  <g id="patch_1">
   <path d="M 0 245.518125 
L 262.554368 245.518125 
L 262.554368 0 
L 0 0 
z
" style="fill: #ffffff"/>
  </g>
  <g id="axes_1">
   <g id="patch_2">
    <path d="M 20.878125 224.64 
L 255.354368 224.64 
L 255.354368 7.2 
L 20.878125 7.2 
z
" style="fill: #ffffff"/>
   </g>
   <g id="line2d_1">
    <path d="M 65.452699 56.982613 
L 89.823855 103.046933 
" clip-path="url(#p8f3a846510)" style="fill: none; stroke-dasharray: 1.85,0.8; stroke-dashoffset: 0; stroke: #808080; stroke-opacity: 0.35; stroke-width: 0.5"/>
   </g>
   <g id="line2d_2">
    <path d="M 65.452699 56.982613 
L 34.285953 17.083636 
" clip-path="url(#p8f3a846510)" style="fill: none; stroke-dasharray: 1.85,0.8; stroke-dashoffset: 0; stroke: #808080; stroke-opacity: 0.35; stroke-width: 0.5"/>
   </g>
   <g id="line2d_3">
    <path d="M 232.140498 214.756364 
L 244.696357 191.582927 
" clip-path="url(#p8f3a846510)" style="fill: none; stroke-dasharray: 1.85,0.8; stroke-dashoffset: 0; stroke: #808080; stroke-opacity: 0.35; stroke-width: 0.5"/>
   </g>
   <g id="line2d_4">
    <path d="M 65.452699 56.982613 
L 94.404009 86.894237 
" clip-path="url(#p8f3a846510)" style="fill: none; stroke-dasharray: 1.85,0.8; stroke-dashoffset: 0; stroke: #808080; stroke-opacity: 0.35; stroke-width: 0.5"/>
   </g>
   <g id="line2d_5">
    <path d="M 89.823855 103.046933 
L 94.404009 86.894237 
" clip-path="url(#p8f3a846510)" style="fill: none; stroke-dasharray: 1.85,0.8; stroke-dashoffset: 0; stroke: #808080; stroke-opacity: 0.35; stroke-width: 0.5"/>
   </g>
   <g id="line2d_6">
    <path d="M 94.404009 86.894237 
L 241.855337 31.82247 
" clip-path="url(#p8f3a846510)" style="fill: none; stroke-dasharray: 1.85,0.8; stroke-dashoffset: 0; stroke: #808080; stroke-opacity: 0.35; stroke-width: 0.5"/>
   </g>
   <g id="line2d_7">
    <path d="M 65.452699 56.982613 
L 31.536136 105.840878 
" clip-path="url(#p8f3a846510)" style="fill: none; stroke-dasharray: 1.85,0.8; stroke-dashoffset: 0; stroke: #808080; stroke-opacity: 0.35; stroke-width: 0.5"/>
   </g>
   <g id="line2d_8">
    <path d="M 89.823855 103.046933 
L 31.536136 105.840878 
" clip-path="url(#p8f3a846510)" style="fill: none; stroke-dasharray: 1.85,0.8; stroke-dashoffset: 0; stroke: #808080; stroke-opacity: 0.35; stroke-width: 0.5"/>
   </g>
   <g id="line2d_9">
    <path d="M 34.285953 17.083636 
L 31.536136 105.840878 
" clip-path="url(#p8f3a846510)" style="fill: none; stroke-dasharray: 1.85,0.8; stroke-dashoffset: 0; stroke: #808080; stroke-opacity: 0.35; stroke-width: 0.5"/>
   </g>
   <g id="line2d_10">
    <path d="M 89.823855 103.046933 
L 154.288938 113.845044 
" clip-path="url(#p8f3a846510)" style="fill: none; stroke-dasharray: 1.85,0.8; stroke-dashoffset: 0; stroke: #808080; stroke-opacity: 0.35; stroke-width: 0.5"/>
   </g>
   <g id="line2d_11">
    <path d="M 94.404009 86.894237 
L 154.288938 113.845044 
" clip-path="url(#p8f3a846510)" style="fill: none; stroke-dasharray: 1.85,0.8; stroke-dashoffset: 0; stroke: #808080; stroke-opacity: 0.35; stroke-width: 0.5"/>
   </g>
   <g id="line2d_12">
    <path d="M 241.855337 31.82247 
L 154.288938 113.845044 
" clip-path="url(#p8f3a846510)" style="fill: none; stroke-dasharray: 1.85,0.8; stroke-dashoffset: 0; stroke: #808080; stroke-opacity: 0.35; stroke-width: 0.5"/>
   </g>
   <g id="line2d_13">
    <path d="M 232.140498 214.756364 
L 202.538293 186.334261 
" clip-path="url(#p8f3a846510)" style="fill: none; stroke-dasharray: 1.85,0.8; stroke-dashoffset: 0; stroke: #808080; stroke-opacity: 0.35; stroke-width: 0.5"/>
   </g>
   <g id="line2d_14">
    <path d="M 244.696357 191.582927 
L 202.538293 186.334261 
" clip-path="url(#p8f3a846510)" style="fill: none; stroke-dasharray: 1.85,0.8; stroke-dashoffset: 0; stroke: #808080; stroke-opacity: 0.35; stroke-width: 0.5"/>
   </g>
   <g id="line2d_15">
    <path d="M 154.288938 113.845044 
L 202.538293 186.334261 
" clip-path="url(#p8f3a846510)" style="fill: none; stroke-dasharray: 1.85,0.8; stroke-dashoffset: 0; stroke: #808080; stroke-opacity: 0.35; stroke-width: 0.5"/>
   </g>
   <g id="line2d_16">
    <path d="M 94.404009 86.894237 
L 94.358888 86.996756 
L 94.311996 87.098847 
L 94.263558 87.200253 
L 94.213523 87.301003 
L 94.16191 87.40106 
L 94.108733 87.500388 
L 94.054009 87.598951 
L 93.997752 87.696716 
L 93.939977 87.79365 
L 93.880699 87.889724 
L 93.819932 87.984906 
L 93.757692 88.079168 
L 93.693994 88.172481 
L 93.628854 88.26482 
L 93.562288 88.356157 
L 93.494315 88.446467 
L 93.424951 88.535725 
L 93.349696 88.626953 
L 93.276914 88.714397 
L 93.202881 88.800688 
L 93.127513 88.885842 
L 93.050827 88.969838 
L 92.972849 89.052656 
L 92.893604 89.134275 
L 92.813118 89.214677 
L 92.731419 89.293846 
L 92.648537 89.371763 
L 92.564502 89.448414 
L 92.479346 89.523783 
L 92.393105 89.597856 
L 92.305813 89.670622 
L 92.217509 89.742066 
L 92.119955 89.816158 
L 92.028155 89.885368 
L 91.936178 89.953026 
L 91.843418 90.019322 
L 91.749844 90.084253 
L 91.655497 90.147808 
L 91.56043 90.20998 
L 91.464703 90.270762 
L 91.36838 90.330146 
L 91.271534 90.388126 
L 91.164559 90.448508 
L 91.064114 90.504275 
L 90.96477 90.558236 
L 90.865533 90.610737 
L 90.766274 90.661802 
L 90.667064 90.711418 
L 90.558481 90.762958 
L 90.456235 90.810386 
L 90.356171 90.85582 
L 90.257366 90.899634 
L 90.150844 90.944856 
L 90.050738 90.986329 
L 89.954115 91.025573 
L 89.852355 91.065521 
L 89.757935 91.101802 
L 89.661941 91.137725 
L 89.575106 91.169705 
L 89.490503 91.200336 
L 89.417676 91.226482 
L 89.352212 91.249838 
L 89.304821 91.266813 
L 89.005538 91.133262 
" clip-path="url(#p8f3a846510)" style="fill: none; stroke: #808080; stroke-opacity: 0.75; stroke-width: 0.75; stroke-linecap: square"/>
   </g>
   <g id="line2d_17">
    <path d="M 244.696357 191.582927 
L 244.475902 191.709391 
L 244.255332 191.835071 
L 244.034895 191.959863 
L 243.814527 192.083788 
L 243.594244 192.206838 
L 243.374057 192.329003 
L 243.153982 192.450274 
L 242.93403 192.57064 
L 242.714216 192.690093 
L 242.494551 192.808621 
L 242.275048 192.926216 
L 242.05572 193.042867 
L 241.83658 193.158563 
L 241.617639 193.273294 
L 241.398912 193.387049 
L 241.180409 193.499816 
L 240.962146 193.611585 
L 240.739558 193.723863 
L 240.521143 193.833801 
L 240.303004 193.942709 
L 240.085119 194.050578 
L 239.867504 194.157394 
L 239.650173 194.263143 
L 239.433142 194.367811 
L 239.216428 194.471381 
L 239.000048 194.57384 
L 238.784018 194.675171 
L 238.568358 194.775357 
L 238.353084 194.874382 
L 238.138217 194.972228 
L 237.923775 195.068878 
L 237.709781 195.164314 
L 237.488051 195.260631 
L 237.273999 195.353746 
L 237.060712 195.445574 
L 236.847943 195.536112 
L 236.635706 195.625337 
L 236.424026 195.713226 
L 236.212929 195.799757 
L 236.002445 195.884907 
L 235.792604 195.968651 
L 235.583436 196.050966 
L 235.365633 196.133668 
L 235.156535 196.213125 
L 234.948765 196.291077 
L 234.741827 196.367501 
L 234.535718 196.44236 
L 234.330476 196.515625 
L 234.117253 196.588602 
L 233.912372 196.658578 
L 233.709169 196.726908 
L 233.507071 196.793534 
L 233.298008 196.859309 
L 233.096657 196.922321 
L 232.897192 196.983583 
L 232.691795 197.04358 
L 232.493554 197.100994 
L 232.290943 197.156892 
L 232.094981 197.210381 
L 231.89529 197.262119 
L 231.701895 197.311528 
L 231.505269 197.358993 
L 231.320541 197.404116 
L 231.159255 197.445882 
L 230.99636 197.486666 
L 230.810573 197.528205 
L 230.631552 197.565502 
L 230.456678 197.600364 
L 230.272645 197.633896 
L 230.09954 197.663834 
L 229.932925 197.691689 
L 229.760142 197.718172 
L 229.59872 197.741499 
L 229.435061 197.763273 
L 229.274655 197.782564 
L 229.129011 197.799318 
L 228.98732 197.814876 
L 228.8544 197.828764 
L 228.740074 197.840836 
L 228.638422 197.852042 
L 228.566612 197.860879 
L 228.004825 197.655003 
" clip-path="url(#p8f3a846510)" style="fill: none; stroke: #808080; stroke-opacity: 0.75; stroke-width: 0.75; stroke-linecap: square"/>
   </g>
   <g id="line2d_18">
    <path d="M 202.538293 186.334261 
L 202.746562 186.394859 
L 202.954792 186.45621 
L 203.162846 186.518244 
L 203.370778 186.580974 
L 203.578594 186.644395 
L 203.786302 186.708499 
L 203.993908 186.77328 
L 204.201418 186.838731 
L 204.408841 186.904847 
L 204.616181 186.971622 
L 204.823446 187.03905 
L 205.030643 187.107125 
L 205.237777 187.175841 
L 205.444857 187.245194 
L 205.651886 187.315178 
L 205.858873 187.385788 
L 206.065822 187.457019 
L 206.275282 187.530043 
L 206.482542 187.602673 
L 206.689794 187.675915 
L 206.897055 187.74977 
L 207.104328 187.824233 
L 207.311619 187.899298 
L 207.518931 187.974961 
L 207.726268 188.051217 
L 207.933635 188.128061 
L 208.141034 188.205487 
L 208.348469 188.283491 
L 208.555941 188.362069 
L 208.763454 188.441214 
L 208.971009 188.520922 
L 209.178609 188.601187 
L 209.390426 188.683981 
L 209.598559 188.765555 
L 209.806687 188.84765 
L 210.014877 188.930289 
L 210.223129 189.013467 
L 210.431443 189.097177 
L 210.639818 189.181414 
L 210.848249 189.266171 
L 211.056735 189.351442 
L 211.265273 189.437219 
L 211.47824 189.52559 
L 211.687334 189.612579 
L 211.896363 189.700012 
L 212.105433 189.787927 
L 212.314539 189.876318 
L 212.523674 189.965177 
L 212.736633 190.056309 
L 212.946217 190.146269 
L 213.155698 190.236624 
L 213.365169 190.327412 
L 213.577746 190.420106 
L 213.787525 190.511889 
L 213.997171 190.604036 
L 214.209294 190.697771 
L 214.4191 190.790816 
L 214.630745 190.885135 
L 214.84051 190.978974 
L 215.051732 191.07389 
L 215.261351 191.168456 
L 215.472137 191.263951 
L 215.679979 191.358479 
L 215.879626 191.449274 
L 216.08075 191.541101 
L 216.293854 191.639303 
L 216.501606 191.73518 
L 216.708468 191.831006 
L 216.920435 191.929686 
L 217.127089 192.026093 
L 217.332707 192.122386 
L 217.542506 192.22108 
L 217.747475 192.31774 
L 217.955441 192.41624 
L 218.162435 192.514581 
L 218.365332 192.611329 
L 218.569992 192.709368 
L 218.773593 192.807297 
L 218.973817 192.904095 
L 219.175108 193.002004 
L 219.368267 193.096511 
L 219.574016 193.18908 
L 219.699685 193.246166 
L 219.863839 193.324101 
L 220.06315 193.420682 
L 220.255925 193.514606 
L 220.44593 193.607423 
L 220.634333 193.699665 
L 220.821481 193.791494 
L 221.026404 193.892667 
L 221.219426 193.988083 
L 221.407192 194.080991 
L 221.591988 194.17256 
L 221.774576 194.263184 
L 221.972184 194.361723 
L 222.159092 194.455067 
L 222.340153 194.545583 
L 222.532326 194.641979 
L 222.713654 194.733052 
L 222.888173 194.820777 
L 223.070829 194.912827 
L 223.254706 195.005727 
L 223.424532 195.0916 
L 223.594811 195.17782 
L 223.760703 195.261932 
L 223.90989 195.337591 
L 224.052334 195.409855 
L 224.182989 195.476149 
L 224.297512 195.534243 
L 224.378924 195.575473 
L 224.439832 195.606258 
L 224.480571 195.626802 
L 224.619572 195.672875 
" clip-path="url(#p8f3a846510)" style="fill: none; stroke: #808080; stroke-opacity: 0.75; stroke-width: 0.75; stroke-linecap: square"/>
   </g>
   <g id="line2d_19">
    <path d="M 31.536136 105.840878 
L 40.378923 97.973427 
L 44.053042 95.044946 
L 47.555536 92.652638 
L 51.476498 90.315885 
L 55.461026 88.24782 
L 58.849369 86.773611 
L 62.879196 85.325917 
L 66.221057 84.365753 
L 70.069667 83.51401 
L 73.925829 82.894237 
L 76.330553 82.542535 
L 76.330553 82.542535 
" clip-path="url(#p8f3a846510)" style="fill: none; stroke: #808080; stroke-opacity: 0.75; stroke-width: 0.75; stroke-linecap: square"/>
   </g>
   <g id="line2d_20">
    <path d="M 89.823855 103.046933 
L 89.415466 97.917212 
L 89.226857 92.493441 
L 89.21154 91.408767 
L 88.680585 90.866708 
L 86.618463 89.332879 
L 83.103044 87.051238 
L 76.197711 82.667346 
L 76.330553 82.542535 
L 76.330553 82.542535 
" clip-path="url(#p8f3a846510)" style="fill: none; stroke: #808080; stroke-opacity: 0.75; stroke-width: 0.75; stroke-linecap: square"/>
   </g>
   <g id="line2d_21">
    <path d="M 34.285953 17.083636 
L 40.86851 31.170057 
L 43.267505 35.493669 
L 45.993801 39.910659 
L 48.637326 43.758279 
L 51.69652 47.83698 
L 56.125264 53.221379 
L 60.922161 58.933493 
L 61.032515 59.091075 
L 61.483359 59.350734 
L 63.653046 62.12689 
L 70.190045 70.23189 
L 75.868135 76.931293 
L 78.798652 80.175275 
L 79.532075 80.670981 
L 79.532075 80.670981 
" clip-path="url(#p8f3a846510)" style="fill: none; stroke: #808080; stroke-opacity: 0.75; stroke-width: 0.75; stroke-linecap: square"/>
   </g>
   <g id="line2d_22">
    <path d="M 154.288938 113.845044 
L 151.844525 113.330978 
L 148.867311 112.464324 
L 145.298785 111.186774 
L 139.76354 108.925397 
L 133.056036 106.070547 
L 126.334259 102.988327 
L 123.352024 101.47148 
L 114.277305 96.508875 
L 108.120413 93.115012 
L 107.622924 92.955931 
L 87.878628 84.016481 
L 87.878628 84.016481 
" clip-path="url(#p8f3a846510)" style="fill: none; stroke: #808080; stroke-opacity: 0.75; stroke-width: 0.75; stroke-linecap: square"/>
   </g>
   <g id="line2d_23">
    <path d="M 241.855337 31.82247 
L 239.856425 33.260434 
L 237.780616 34.462835 
L 235.523161 35.513863 
L 232.881151 36.492019 
L 230.908745 37.091426 
L 228.707069 37.633717 
L 220.73667 39.179715 
L 219.195391 39.519877 
L 216.949222 40.349752 
L 209.363772 43.422928 
L 201.965688 46.659028 
L 194.758284 50.053694 
L 187.744671 53.60185 
L 180.894246 57.316465 
L 174.244264 61.17412 
L 167.765027 65.188106 
L 161.429322 69.374577 
L 155.275889 73.70663 
L 149.282414 78.1982 
L 143.4959 82.812283 
L 137.980984 87.493121 
L 133.03447 91.976595 
L 128.924196 95.997907 
L 127.280442 97.850434 
L 127.066578 98.16765 
L 127.218041 98.975954 
L 127.218041 98.975954 
" clip-path="url(#p8f3a846510)" style="fill: none; stroke: #808080; stroke-opacity: 0.75; stroke-width: 0.75; stroke-linecap: square"/>
   </g>
   <g id="line2d_24">
    <path d="M 232.140498 214.756364 
L 231.383143 208.76177 
L 230.653137 204.695933 
L 229.917011 201.777687 
L 229.051654 199.291761 
L 228.474955 198.027335 
L 227.481994 197.356471 
L 224.398292 195.466789 
L 221.850032 193.276646 
L 218.899871 190.948615 
L 214.432946 187.687008 
L 207.599117 181.700088 
L 201.103416 175.715559 
L 194.893493 169.693474 
L 188.93639 163.607275 
L 183.216681 157.446003 
L 177.703882 151.18113 
L 172.339185 144.747372 
L 167.025341 138.250179 
L 166.727243 138.246778 
L 163.120598 134.667612 
L 139.102208 110.818936 
L 139.102208 110.818936 
" clip-path="url(#p8f3a846510)" style="fill: none; stroke: #808080; stroke-opacity: 0.75; stroke-width: 0.75; stroke-linecap: square"/>
   </g>
   <g id="line2d_25">
    <path d="M 65.452699 56.982613 
L 65.767047 60.011127 
L 66.316946 63.191304 
L 67.177018 66.730524 
L 68.186792 69.929497 
L 69.399537 72.983328 
L 70.811155 75.899337 
L 72.089227 78.027587 
L 73.435071 79.85592 
L 74.93554 81.51122 
L 76.038098 82.549231 
L 76.481321 82.429804 
L 78.892784 80.306192 
L 80.349806 81.011996 
L 89.771318 84.688089 
L 112.024285 92.737879 
L 126.939064 98.245114 
L 127.429595 99.228802 
L 139.29242 111.007805 
L 139.102208 110.818936 
" clip-path="url(#p8f3a846510)" style="fill: none; stroke: #808080; stroke-opacity: 0.75; stroke-width: 0.75; stroke-linecap: square"/>
   </g>
   <g id="PathCollection_1">
    <defs>
     <path id="C0_0_016fb8ab08" d="M 0 1.581139 
C 0.419323 1.581139 0.821528 1.41454 1.118034 1.118034 
C 1.41454 0.821528 1.581139 0.419323 1.581139 -0 
C 1.581139 -0.419323 1.41454 -0.821528 1.118034 -1.118034 
C 0.821528 -1.41454 0.419323 -1.581139 0 -1.581139 
C -0.419323 -1.581139 -0.821528 -1.41454 -1.118034 -1.118034 
C -1.41454 -0.821528 -1.581139 -0.419323 -1.581139 0 
C -1.581139 0.419323 -1.41454 0.821528 -1.118034 1.118034 
C -0.821528 1.41454 -0.419323 1.581139 0 1.581139 
z
"/>
    </defs>
    <g clip-path="url(#p8f3a846510)">
     <use xlink:href="#C0_0_016fb8ab08" x="65.452699" y="56.982613" style="fill: #36ada4; stroke: #36ada4"/>
    </g>
    <g clip-path="url(#p8f3a846510)">
     <use xlink:href="#C0_0_016fb8ab08" x="89.823855" y="103.046933" style="fill: #36ada4; stroke: #36ada4"/>
    </g>
    <g clip-path="url(#p8f3a846510)">
     <use xlink:href="#C0_0_016fb8ab08" x="34.285953" y="17.083636" style="fill: #36ada4; stroke: #36ada4"/>
    </g>
    <g clip-path="url(#p8f3a846510)">
     <use xlink:href="#C0_0_016fb8ab08" x="232.140498" y="214.756364" style="fill: #f77189; stroke: #f77189"/>
    </g>
    <g clip-path="url(#p8f3a846510)">
     <use xlink:href="#C0_0_016fb8ab08" x="244.696357" y="191.582927" style="fill: #f77189; stroke: #f77189"/>
    </g>
    <g clip-path="url(#p8f3a846510)">
     <use xlink:href="#C0_0_016fb8ab08" x="94.404009" y="86.894237" style="fill: #36ada4; stroke: #36ada4"/>
    </g>
    <g clip-path="url(#p8f3a846510)">
     <use xlink:href="#C0_0_016fb8ab08" x="241.855337" y="31.82247" style="fill: #36ada4; stroke: #36ada4"/>
    </g>
    <g clip-path="url(#p8f3a846510)">
     <use xlink:href="#C0_0_016fb8ab08" x="31.536136" y="105.840878" style="fill: #36ada4; stroke: #36ada4"/>
    </g>
    <g clip-path="url(#p8f3a846510)">
     <use xlink:href="#C0_0_016fb8ab08" x="154.288938" y="113.845044" style="fill: #36ada4; stroke: #36ada4"/>
    </g>
    <g clip-path="url(#p8f3a846510)">
     <use xlink:href="#C0_0_016fb8ab08" x="202.538293" y="186.334261" style="fill: #f77189; stroke: #f77189"/>
    </g>
   </g>
   <g id="PathCollection_2">
    <defs>
     <path id="m60305a0229" d="M 0 1.118034 
C 0.296506 1.118034 0.580908 1.000231 0.790569 0.790569 
C 1.000231 0.580908 1.118034 0.296506 1.118034 0 
C 1.118034 -0.296506 1.000231 -0.580908 0.790569 -0.790569 
C 0.580908 -1.000231 0.296506 -1.118034 0 -1.118034 
C -0.296506 -1.118034 -0.580908 -1.000231 -0.790569 -0.790569 
C -1.000231 -0.580908 -1.118034 -0.296506 -1.118034 0 
C -1.118034 0.296506 -1.000231 0.580908 -0.790569 0.790569 
C -0.580908 1.000231 -0.296506 1.118034 0 1.118034 
z
" style="stroke: #000000"/>
    </defs>
    <g clip-path="url(#p8f3a846510)">
     <use xlink:href="#m60305a0229" x="139.102208" y="110.818936" style="stroke: #000000"/>
    </g>
   </g>
   <g id="matplotlib.axis_1">
    <g id="text_1">
     <!-- $x_1$ -->
     <g transform="translate(132.766247 236.238437) scale(0.1 -0.1)">
      <defs>
       <path id="DejaVuSans-Oblique-78" d="M 3841 3500 
L 2234 1784 
L 3219 0 
L 2559 0 
L 1819 1388 
L 531 0 
L -166 0 
L 1556 1844 
L 641 3500 
L 1300 3500 
L 1972 2234 
L 3144 3500 
L 3841 3500 
z
" transform="scale(0.015625)"/>
       <path id="DejaVuSans-31" d="M 794 531 
L 1825 531 
L 1825 4091 
L 703 3866 
L 703 4441 
L 1819 4666 
L 2450 4666 
L 2450 531 
L 3481 531 
L 3481 0 
L 794 0 
L 794 531 
z
" transform="scale(0.015625)"/>
      </defs>
      <use xlink:href="#DejaVuSans-Oblique-78" transform="translate(0 0.3125)"/>
      <use xlink:href="#DejaVuSans-31" transform="translate(59.179688 -16.09375) scale(0.7)"/>
     </g>
    </g>
   </g>
   <g id="matplotlib.axis_2">
    <g id="text_2">
     <!-- $x_2$ -->
     <g transform="translate(14.798438 121.27) rotate(-90) scale(0.1 -0.1)">
      <defs>
       <path id="DejaVuSans-32" d="M 1228 531 
L 3431 531 
L 3431 0 
L 469 0 
L 469 531 
Q 828 903 1448 1529 
Q 2069 2156 2228 2338 
Q 2531 2678 2651 2914 
Q 2772 3150 2772 3378 
Q 2772 3750 2511 3984 
Q 2250 4219 1831 4219 
Q 1534 4219 1204 4116 
Q 875 4013 500 3803 
L 500 4441 
Q 881 4594 1212 4672 
Q 1544 4750 1819 4750 
Q 2544 4750 2975 4387 
Q 3406 4025 3406 3419 
Q 3406 3131 3298 2873 
Q 3191 2616 2906 2266 
Q 2828 2175 2409 1742 
Q 1991 1309 1228 531 
z
" transform="scale(0.015625)"/>
      </defs>
      <use xlink:href="#DejaVuSans-Oblique-78" transform="translate(0 0.3125)"/>
      <use xlink:href="#DejaVuSans-32" transform="translate(59.179688 -16.09375) scale(0.7)"/>
     </g>
    </g>
   </g>
   <g id="patch_3">
    <path d="M 20.878125 224.64 
L 20.878125 7.2 
" style="fill: none; stroke: #000000; stroke-width: 0.8; stroke-linejoin: miter; stroke-linecap: square"/>
   </g>
   <g id="patch_4">
    <path d="M 255.354368 224.64 
L 255.354368 7.2 
" style="fill: none; stroke: #000000; stroke-width: 0.8; stroke-linejoin: miter; stroke-linecap: square"/>
   </g>
   <g id="patch_5">
    <path d="M 20.878125 224.64 
L 255.354368 224.64 
" style="fill: none; stroke: #000000; stroke-width: 0.8; stroke-linejoin: miter; stroke-linecap: square"/>
   </g>
   <g id="patch_6">
    <path d="M 20.878125 7.2 
L 255.354368 7.2 
" style="fill: none; stroke: #000000; stroke-width: 0.8; stroke-linejoin: miter; stroke-linecap: square"/>
   </g>
  </g>
 </g>
 <defs>
  <clipPath id="p8f3a846510">
   <rect x="20.878125" y="7.2" width="234.476243" height="217.44"/>
  </clipPath>
 </defs>
</svg>
