<?xml version="1.0" encoding="utf-8" standalone="no"?>
<!DOCTYPE svg PUBLIC "-//W3C//DTD SVG 1.1//EN"
  "http://www.w3.org/Graphics/SVG/1.1/DTD/svg11.dtd">
<svg xmlns:xlink="http://www.w3.org/1999/xlink" width="234.061122pt" height="245.518125pt" viewBox="0 0 234.061122 245.518125" xmlns="http://www.w3.org/2000/svg" version="1.1">
 <metadata>
  <rdf:RDF xmlns:dc="http://purl.org/dc/elements/1.1/" xmlns:cc="http://creativecommons.org/ns#" xmlns:rdf="http://www.w3.org/1999/02/22-rdf-syntax-ns#">
   <cc:Work>
    <dc:type rdf:resource="http://purl.org/dc/dcmitype/StillImage"/>
    <dc:date>2023-04-06T18:06:20.442968</dc:date>
    <dc:format>image/svg+xml</dc:format>
    <dc:creator>
     <cc:Agent>
      <dc:title>Matplotlib v3.7.1, https://matplotlib.org/</dc:title>
     </cc:Agent>
    </dc:creator>
   </cc:Work>
  </rdf:RDF>
 </metadata>
 <defs>
  <style type="text/css">*{stroke-linejoin: round; stroke-linecap: butt}</style>
 </defs>
 <g id="figure_1">
  <g id="patch_1">
   <path d="M 0 245.518125 
L 234.061122 245.518125 
L 234.061122 0 
L 0 0 
z
" style="fill: #ffffff"/>
  </g>
  <g id="axes_1">
   <g id="patch_2">
    <path d="M 20.878125 224.64 
L 226.861122 224.64 
L 226.861122 7.2 
L 20.878125 7.2 
z
" style="fill: #ffffff"/>
   </g>
   <g id="PathCollection_1">
    <defs>
     <path id="C0_0_5bc041f221" d="M 0 1.581139 
C 0.419323 1.581139 0.821528 1.41454 1.118034 1.118034 
C 1.41454 0.821528 1.581139 0.419323 1.581139 -0 
C 1.581139 -0.419323 1.41454 -0.821528 1.118034 -1.118034 
C 0.821528 -1.41454 0.419323 -1.581139 0 -1.581139 
C -0.419323 -1.581139 -0.821528 -1.41454 -1.118034 -1.118034 
C -1.41454 -0.821528 -1.581139 -0.419323 -1.581139 0 
C -1.581139 0.419323 -1.41454 0.821528 -1.118034 1.118034 
C -0.821528 1.41454 -0.419323 1.581139 0 1.581139 
z
"/>
    </defs>
    <g clip-path="url(#p9ae3ad0fa4)">
     <use xlink:href="#C0_0_5bc041f221" x="108.698741" y="214.756364" style="fill: #36ada4; stroke: #36ada4"/>
    </g>
    <g clip-path="url(#p9ae3ad0fa4)">
     <use xlink:href="#C0_0_5bc041f221" x="138.286199" y="108.191305" style="fill: #36ada4; stroke: #36ada4"/>
    </g>
    <g clip-path="url(#p9ae3ad0fa4)">
     <use xlink:href="#C0_0_5bc041f221" x="104.631036" y="135.519374" style="fill: #36ada4; stroke: #36ada4"/>
    </g>
    <g clip-path="url(#p9ae3ad0fa4)">
     <use xlink:href="#C0_0_5bc041f221" x="48.479738" y="60.309834" style="fill: #f77189; stroke: #f77189"/>
    </g>
    <g clip-path="url(#p9ae3ad0fa4)">
     <use xlink:href="#C0_0_5bc041f221" x="73.209633" y="152.05027" style="fill: #36ada4; stroke: #36ada4"/>
    </g>
    <g clip-path="url(#p9ae3ad0fa4)">
     <use xlink:href="#C0_0_5bc041f221" x="156.89006" y="83.770211" style="fill: #36ada4; stroke: #36ada4"/>
    </g>
    <g clip-path="url(#p9ae3ad0fa4)">
     <use xlink:href="#C0_0_5bc041f221" x="30.240988" y="87.821485" style="fill: #f77189; stroke: #f77189"/>
    </g>
    <g clip-path="url(#p9ae3ad0fa4)">
     <use xlink:href="#C0_0_5bc041f221" x="43.219433" y="17.083636" style="fill: #f77189; stroke: #f77189"/>
    </g>
    <g clip-path="url(#p9ae3ad0fa4)">
     <use xlink:href="#C0_0_5bc041f221" x="217.498258" y="92.855985" style="fill: #36ada4; stroke: #36ada4"/>
    </g>
    <g clip-path="url(#p9ae3ad0fa4)">
     <use xlink:href="#C0_0_5bc041f221" x="215.568458" y="200.773344" style="fill: #36ada4; stroke: #36ada4"/>
    </g>
   </g>
   <g id="matplotlib.axis_1">
    <g id="text_1">
     <!-- $x_1$ -->
     <g transform="translate(118.519623 236.238437) scale(0.1 -0.1)">
      <defs>
       <path id="DejaVuSans-Oblique-78" d="M 3841 3500 
L 2234 1784 
L 3219 0 
L 2559 0 
L 1819 1388 
L 531 0 
L -166 0 
L 1556 1844 
L 641 3500 
L 1300 3500 
L 1972 2234 
L 3144 3500 
L 3841 3500 
z
" transform="scale(0.015625)"/>
       <path id="DejaVuSans-31" d="M 794 531 
L 1825 531 
L 1825 4091 
L 703 3866 
L 703 4441 
L 1819 4666 
L 2450 4666 
L 2450 531 
L 3481 531 
L 3481 0 
L 794 0 
L 794 531 
z
" transform="scale(0.015625)"/>
      </defs>
      <use xlink:href="#DejaVuSans-Oblique-78" transform="translate(0 0.3125)"/>
      <use xlink:href="#DejaVuSans-31" transform="translate(59.179688 -16.09375) scale(0.7)"/>
     </g>
    </g>
   </g>
   <g id="matplotlib.axis_2">
    <g id="text_2">
     <!-- $x_2$ -->
     <g transform="translate(14.798438 121.27) rotate(-90) scale(0.1 -0.1)">
      <defs>
       <path id="DejaVuSans-32" d="M 1228 531 
L 3431 531 
L 3431 0 
L 469 0 
L 469 531 
Q 828 903 1448 1529 
Q 2069 2156 2228 2338 
Q 2531 2678 2651 2914 
Q 2772 3150 2772 3378 
Q 2772 3750 2511 3984 
Q 2250 4219 1831 4219 
Q 1534 4219 1204 4116 
Q 875 4013 500 3803 
L 500 4441 
Q 881 4594 1212 4672 
Q 1544 4750 1819 4750 
Q 2544 4750 2975 4387 
Q 3406 4025 3406 3419 
Q 3406 3131 3298 2873 
Q 3191 2616 2906 2266 
Q 2828 2175 2409 1742 
Q 1991 1309 1228 531 
z
" transform="scale(0.015625)"/>
      </defs>
      <use xlink:href="#DejaVuSans-Oblique-78" transform="translate(0 0.3125)"/>
      <use xlink:href="#DejaVuSans-32" transform="translate(59.179688 -16.09375) scale(0.7)"/>
     </g>
    </g>
   </g>
   <g id="patch_3">
    <path d="M 20.878125 224.64 
L 20.878125 7.2 
" style="fill: none; stroke: #000000; stroke-width: 0.8; stroke-linejoin: miter; stroke-linecap: square"/>
   </g>
   <g id="patch_4">
    <path d="M 226.861122 224.64 
L 226.861122 7.2 
" style="fill: none; stroke: #000000; stroke-width: 0.8; stroke-linejoin: miter; stroke-linecap: square"/>
   </g>
   <g id="patch_5">
    <path d="M 20.878125 224.64 
L 226.861122 224.64 
" style="fill: none; stroke: #000000; stroke-width: 0.8; stroke-linejoin: miter; stroke-linecap: square"/>
   </g>
   <g id="patch_6">
    <path d="M 20.878125 7.2 
L 226.861122 7.2 
" style="fill: none; stroke: #000000; stroke-width: 0.8; stroke-linejoin: miter; stroke-linecap: square"/>
   </g>
  </g>
 </g>
 <defs>
  <clipPath id="p9ae3ad0fa4">
   <rect x="20.878125" y="7.2" width="205.982997" height="217.44"/>
  </clipPath>
 </defs>
</svg>
