<?xml version="1.0" encoding="utf-8" standalone="no"?>
<!DOCTYPE svg PUBLIC "-//W3C//DTD SVG 1.1//EN"
  "http://www.w3.org/Graphics/SVG/1.1/DTD/svg11.dtd">
<svg xmlns:xlink="http://www.w3.org/1999/xlink" width="262.554368pt" height="245.518125pt" viewBox="0 0 262.554368 245.518125" xmlns="http://www.w3.org/2000/svg" version="1.1">
 <metadata>
  <rdf:RDF xmlns:dc="http://purl.org/dc/elements/1.1/" xmlns:cc="http://creativecommons.org/ns#" xmlns:rdf="http://www.w3.org/1999/02/22-rdf-syntax-ns#">
   <cc:Work>
    <dc:type rdf:resource="http://purl.org/dc/dcmitype/StillImage"/>
    <dc:date>2023-04-06T18:06:19.644788</dc:date>
    <dc:format>image/svg+xml</dc:format>
    <dc:creator>
     <cc:Agent>
      <dc:title>Matplotlib v3.7.1, https://matplotlib.org/</dc:title>
     </cc:Agent>
    </dc:creator>
   </cc:Work>
  </rdf:RDF>
 </metadata>
 <defs>
  <style type="text/css">*{stroke-linejoin: round; stroke-linecap: butt}</style>
 </defs>
 <g id="figure_1">
  <g id="patch_1">
   <path d="M 0 245.518125 
L 262.554368 245.518125 
L 262.554368 0 
L 0 0 
z
" style="fill: #ffffff"/>
  </g>
  <g id="axes_1">
   <g id="patch_2">
    <path d="M 20.878125 224.64 
L 255.354368 224.64 
L 255.354368 7.2 
L 20.878125 7.2 
z
" style="fill: #ffffff"/>
   </g>
   <g id="line2d_1">
    <path d="M 65.452699 56.982613 
L 89.823855 103.046933 
" clip-path="url(#p71720cf091)" style="fill: none; stroke-dasharray: 1.85,0.8; stroke-dashoffset: 0; stroke: #808080; stroke-opacity: 0.35; stroke-width: 0.5"/>
   </g>
   <g id="line2d_2">
    <path d="M 65.452699 56.982613 
L 34.285953 17.083636 
" clip-path="url(#p71720cf091)" style="fill: none; stroke-dasharray: 1.85,0.8; stroke-dashoffset: 0; stroke: #808080; stroke-opacity: 0.35; stroke-width: 0.5"/>
   </g>
   <g id="line2d_3">
    <path d="M 232.140498 214.756364 
L 244.696357 191.582927 
" clip-path="url(#p71720cf091)" style="fill: none; stroke-dasharray: 1.85,0.8; stroke-dashoffset: 0; stroke: #808080; stroke-opacity: 0.35; stroke-width: 0.5"/>
   </g>
   <g id="line2d_4">
    <path d="M 65.452699 56.982613 
L 94.404009 86.894237 
" clip-path="url(#p71720cf091)" style="fill: none; stroke-dasharray: 1.85,0.8; stroke-dashoffset: 0; stroke: #808080; stroke-opacity: 0.35; stroke-width: 0.5"/>
   </g>
   <g id="line2d_5">
    <path d="M 89.823855 103.046933 
L 94.404009 86.894237 
" clip-path="url(#p71720cf091)" style="fill: none; stroke-dasharray: 1.85,0.8; stroke-dashoffset: 0; stroke: #808080; stroke-opacity: 0.35; stroke-width: 0.5"/>
   </g>
   <g id="line2d_6">
    <path d="M 94.404009 86.894237 
L 241.855337 31.82247 
" clip-path="url(#p71720cf091)" style="fill: none; stroke-dasharray: 1.85,0.8; stroke-dashoffset: 0; stroke: #808080; stroke-opacity: 0.35; stroke-width: 0.5"/>
   </g>
   <g id="line2d_7">
    <path d="M 65.452699 56.982613 
L 31.536136 105.840878 
" clip-path="url(#p71720cf091)" style="fill: none; stroke-dasharray: 1.85,0.8; stroke-dashoffset: 0; stroke: #808080; stroke-opacity: 0.35; stroke-width: 0.5"/>
   </g>
   <g id="line2d_8">
    <path d="M 89.823855 103.046933 
L 31.536136 105.840878 
" clip-path="url(#p71720cf091)" style="fill: none; stroke-dasharray: 1.85,0.8; stroke-dashoffset: 0; stroke: #808080; stroke-opacity: 0.35; stroke-width: 0.5"/>
   </g>
   <g id="line2d_9">
    <path d="M 34.285953 17.083636 
L 31.536136 105.840878 
" clip-path="url(#p71720cf091)" style="fill: none; stroke-dasharray: 1.85,0.8; stroke-dashoffset: 0; stroke: #808080; stroke-opacity: 0.35; stroke-width: 0.5"/>
   </g>
   <g id="line2d_10">
    <path d="M 89.823855 103.046933 
L 154.288938 113.845044 
" clip-path="url(#p71720cf091)" style="fill: none; stroke-dasharray: 1.85,0.8; stroke-dashoffset: 0; stroke: #808080; stroke-opacity: 0.35; stroke-width: 0.5"/>
   </g>
   <g id="line2d_11">
    <path d="M 94.404009 86.894237 
L 154.288938 113.845044 
" clip-path="url(#p71720cf091)" style="fill: none; stroke-dasharray: 1.85,0.8; stroke-dashoffset: 0; stroke: #808080; stroke-opacity: 0.35; stroke-width: 0.5"/>
   </g>
   <g id="line2d_12">
    <path d="M 241.855337 31.82247 
L 154.288938 113.845044 
" clip-path="url(#p71720cf091)" style="fill: none; stroke-dasharray: 1.85,0.8; stroke-dashoffset: 0; stroke: #808080; stroke-opacity: 0.35; stroke-width: 0.5"/>
   </g>
   <g id="line2d_13">
    <path d="M 232.140498 214.756364 
L 202.538293 186.334261 
" clip-path="url(#p71720cf091)" style="fill: none; stroke-dasharray: 1.85,0.8; stroke-dashoffset: 0; stroke: #808080; stroke-opacity: 0.35; stroke-width: 0.5"/>
   </g>
   <g id="line2d_14">
    <path d="M 244.696357 191.582927 
L 202.538293 186.334261 
" clip-path="url(#p71720cf091)" style="fill: none; stroke-dasharray: 1.85,0.8; stroke-dashoffset: 0; stroke: #808080; stroke-opacity: 0.35; stroke-width: 0.5"/>
   </g>
   <g id="PathCollection_1">
    <defs>
     <path id="C0_0_1f0d8219a2" d="M 0 1.581139 
C 0.419323 1.581139 0.821528 1.41454 1.118034 1.118034 
C 1.41454 0.821528 1.581139 0.419323 1.581139 -0 
C 1.581139 -0.419323 1.41454 -0.821528 1.118034 -1.118034 
C 0.821528 -1.41454 0.419323 -1.581139 0 -1.581139 
C -0.419323 -1.581139 -0.821528 -1.41454 -1.118034 -1.118034 
C -1.41454 -0.821528 -1.581139 -0.419323 -1.581139 0 
C -1.581139 0.419323 -1.41454 0.821528 -1.118034 1.118034 
C -0.821528 1.41454 -0.419323 1.581139 0 1.581139 
z
"/>
    </defs>
    <g clip-path="url(#p71720cf091)">
     <use xlink:href="#C0_0_1f0d8219a2" x="65.452699" y="56.982613" style="fill: #36ada4; stroke: #36ada4"/>
    </g>
    <g clip-path="url(#p71720cf091)">
     <use xlink:href="#C0_0_1f0d8219a2" x="89.823855" y="103.046933" style="fill: #36ada4; stroke: #36ada4"/>
    </g>
    <g clip-path="url(#p71720cf091)">
     <use xlink:href="#C0_0_1f0d8219a2" x="34.285953" y="17.083636" style="fill: #36ada4; stroke: #36ada4"/>
    </g>
    <g clip-path="url(#p71720cf091)">
     <use xlink:href="#C0_0_1f0d8219a2" x="232.140498" y="214.756364" style="fill: #f77189; stroke: #f77189"/>
    </g>
    <g clip-path="url(#p71720cf091)">
     <use xlink:href="#C0_0_1f0d8219a2" x="244.696357" y="191.582927" style="fill: #f77189; stroke: #f77189"/>
    </g>
    <g clip-path="url(#p71720cf091)">
     <use xlink:href="#C0_0_1f0d8219a2" x="94.404009" y="86.894237" style="fill: #36ada4; stroke: #36ada4"/>
    </g>
    <g clip-path="url(#p71720cf091)">
     <use xlink:href="#C0_0_1f0d8219a2" x="241.855337" y="31.82247" style="fill: #36ada4; stroke: #36ada4"/>
    </g>
    <g clip-path="url(#p71720cf091)">
     <use xlink:href="#C0_0_1f0d8219a2" x="31.536136" y="105.840878" style="fill: #36ada4; stroke: #36ada4"/>
    </g>
    <g clip-path="url(#p71720cf091)">
     <use xlink:href="#C0_0_1f0d8219a2" x="154.288938" y="113.845044" style="fill: #36ada4; stroke: #36ada4"/>
    </g>
    <g clip-path="url(#p71720cf091)">
     <use xlink:href="#C0_0_1f0d8219a2" x="202.538293" y="186.334261" style="fill: #f77189; stroke: #f77189"/>
    </g>
   </g>
   <g id="matplotlib.axis_1">
    <g id="text_1">
     <!-- $x_1$ -->
     <g transform="translate(132.766247 236.238437) scale(0.1 -0.1)">
      <defs>
       <path id="DejaVuSans-Oblique-78" d="M 3841 3500 
L 2234 1784 
L 3219 0 
L 2559 0 
L 1819 1388 
L 531 0 
L -166 0 
L 1556 1844 
L 641 3500 
L 1300 3500 
L 1972 2234 
L 3144 3500 
L 3841 3500 
z
" transform="scale(0.015625)"/>
       <path id="DejaVuSans-31" d="M 794 531 
L 1825 531 
L 1825 4091 
L 703 3866 
L 703 4441 
L 1819 4666 
L 2450 4666 
L 2450 531 
L 3481 531 
L 3481 0 
L 794 0 
L 794 531 
z
" transform="scale(0.015625)"/>
      </defs>
      <use xlink:href="#DejaVuSans-Oblique-78" transform="translate(0 0.3125)"/>
      <use xlink:href="#DejaVuSans-31" transform="translate(59.179688 -16.09375) scale(0.7)"/>
     </g>
    </g>
   </g>
   <g id="matplotlib.axis_2">
    <g id="text_2">
     <!-- $x_2$ -->
     <g transform="translate(14.798438 121.27) rotate(-90) scale(0.1 -0.1)">
      <defs>
       <path id="DejaVuSans-32" d="M 1228 531 
L 3431 531 
L 3431 0 
L 469 0 
L 469 531 
Q 828 903 1448 1529 
Q 2069 2156 2228 2338 
Q 2531 2678 2651 2914 
Q 2772 3150 2772 3378 
Q 2772 3750 2511 3984 
Q 2250 4219 1831 4219 
Q 1534 4219 1204 4116 
Q 875 4013 500 3803 
L 500 4441 
Q 881 4594 1212 4672 
Q 1544 4750 1819 4750 
Q 2544 4750 2975 4387 
Q 3406 4025 3406 3419 
Q 3406 3131 3298 2873 
Q 3191 2616 2906 2266 
Q 2828 2175 2409 1742 
Q 1991 1309 1228 531 
z
" transform="scale(0.015625)"/>
      </defs>
      <use xlink:href="#DejaVuSans-Oblique-78" transform="translate(0 0.3125)"/>
      <use xlink:href="#DejaVuSans-32" transform="translate(59.179688 -16.09375) scale(0.7)"/>
     </g>
    </g>
   </g>
   <g id="patch_3">
    <path d="M 20.878125 224.64 
L 20.878125 7.2 
" style="fill: none; stroke: #000000; stroke-width: 0.8; stroke-linejoin: miter; stroke-linecap: square"/>
   </g>
   <g id="patch_4">
    <path d="M 255.354368 224.64 
L 255.354368 7.2 
" style="fill: none; stroke: #000000; stroke-width: 0.8; stroke-linejoin: miter; stroke-linecap: square"/>
   </g>
   <g id="patch_5">
    <path d="M 20.878125 224.64 
L 255.354368 224.64 
" style="fill: none; stroke: #000000; stroke-width: 0.8; stroke-linejoin: miter; stroke-linecap: square"/>
   </g>
   <g id="patch_6">
    <path d="M 20.878125 7.2 
L 255.354368 7.2 
" style="fill: none; stroke: #000000; stroke-width: 0.8; stroke-linejoin: miter; stroke-linecap: square"/>
   </g>
  </g>
 </g>
 <defs>
  <clipPath id="p71720cf091">
   <rect x="20.878125" y="7.2" width="234.476243" height="217.44"/>
  </clipPath>
 </defs>
</svg>
